<svg width="27" height="33" viewBox="0 0 27 33" fill="none" xmlns="http://www.w3.org/2000/svg">
<path d="M26.5758 24.6641C25.7941 24.0429 24.8416 23.5956 23.8083 23.3787L18.882 22.3848C18.3653 22.2854 17.9924 21.82 17.9924 21.2778V20.1415C18.3092 19.6943 18.6079 19.1001 18.9202 18.4789C19.1628 17.9977 19.529 17.2726 19.7109 17.0851C20.7083 16.0775 21.672 14.9458 21.9707 13.4864C22.2493 12.1174 21.9752 11.3991 21.654 10.8208C21.654 9.37724 21.6091 7.57001 21.2699 6.25525C21.2294 4.47513 20.9082 3.47437 20.0995 2.59787C19.529 1.97663 18.6888 1.83205 18.0127 1.71684C17.7476 1.67166 17.3814 1.60841 17.2467 1.53612C16.0493 0.885518 14.8655 0.566994 13.4526 0.542145C10.4941 0.664133 6.85724 2.55721 5.63971 5.93221C5.26232 6.96007 5.30051 8.64757 5.33196 10.003L5.30276 10.8185C5.01298 11.3878 4.72769 12.1107 5.00849 13.4842C5.305 14.9458 6.26869 16.0798 7.28405 17.1009C7.45028 17.2726 7.82542 18.0045 8.07252 18.4879C8.38926 19.1069 8.69027 19.6988 9.00701 20.1438V21.2801C9.00701 21.82 8.63186 22.2854 8.11296 22.387L3.1822 23.381C2.15561 23.6001 1.20315 24.0429 0.423666 24.6641C0.181059 24.8607 0.0283068 25.1476 0.00359689 25.4593C-0.0211131 25.7711 0.0822192 26.076 0.291131 26.3087C3.64719 30.0316 8.46114 32.1687 13.4997 32.1687C18.5383 32.1687 23.3545 30.0339 26.7083 26.3087C26.9172 26.076 27.0228 25.7688 26.9959 25.4571C26.9711 25.1453 26.8184 24.8584 26.5758 24.6641Z" fill="#EFEFD0"/>
</svg>
