<svg width="50" height="50" viewBox="0 0 50 50" fill="none" xmlns="http://www.w3.org/2000/svg">
<path d="M36.3566 13.8989C37.4172 12.8439 37.4172 11.1246 36.3566 10.0696L32.4546 6.16765L32.4602 6.17323C31.4275 5.14053 29.6524 3.36541 27.1404 0.859016C25.957 -0.296491 24.0423 -0.285326 22.8701 0.886927L0.887518 22.8527C0.606267 23.1321 0.383056 23.4643 0.230737 23.8303C0.0784176 24.1962 0 24.5887 0 24.9851C0 25.3815 0.0784176 25.774 0.230737 26.14C0.383056 26.5059 0.606267 26.8381 0.887518 27.1175L22.8645 49.0777C23.4311 49.6434 24.199 49.9611 24.9997 49.9611C25.8003 49.9611 26.5682 49.6434 27.1348 49.0777L36.351 39.8671C37.4116 38.8121 37.4116 37.0928 36.351 36.0378C35.8415 35.5309 35.1521 35.2463 34.4335 35.2463C33.7149 35.2463 33.0255 35.5309 32.516 36.0378L25.5383 43.0266C25.2481 43.3169 24.7959 43.3169 24.5056 43.0266L6.94974 25.4875C6.65947 25.1972 6.65947 24.7451 6.94974 24.4548L24.5 6.91566C24.5224 6.89333 24.5503 6.87658 24.5726 6.85426C24.8629 6.62539 25.2648 6.64772 25.5327 6.91566L32.5216 13.8989C33.5822 14.9595 35.3015 14.9595 36.3566 13.8989ZM19.1803 25.0968C19.1803 26.669 19.8054 28.1769 20.9182 29.2887C22.031 30.4004 23.5403 31.025 25.1141 31.025C26.6878 31.025 28.1971 30.4004 29.3099 29.2887C30.4228 28.1769 31.0479 26.669 31.0479 25.0968C31.0479 23.5245 30.4228 22.0166 29.3099 20.9048C28.1971 19.7931 26.6878 19.1685 25.1141 19.1685C23.5403 19.1685 22.031 19.7931 20.9182 20.9048C19.8054 22.0166 19.1803 23.5245 19.1803 25.0968ZM49.1118 22.942L42.2513 16.1151C41.1907 15.06 39.4714 15.06 38.4164 16.1206C38.1642 16.3717 37.9641 16.67 37.8276 16.9986C37.6911 17.3272 37.6208 17.6795 37.6208 18.0353C37.6208 18.3911 37.6911 18.7434 37.8276 19.072C37.9641 19.4006 38.1642 19.699 38.4164 19.95L43.0496 24.5776C43.3398 24.8679 43.3398 25.32 43.0496 25.6103L38.4834 30.1709C38.2312 30.422 38.0311 30.7203 37.8946 31.0489C37.7581 31.3775 37.6878 31.7298 37.6878 32.0856C37.6878 32.4414 37.7581 32.7937 37.8946 33.1223C38.0311 33.4509 38.2312 33.7493 38.4834 34.0003C38.9928 34.5072 39.6822 34.7917 40.4008 34.7917C41.1195 34.7917 41.8089 34.5072 42.3183 34.0003L49.1174 27.2068C49.3977 26.9268 49.6199 26.5941 49.7714 26.228C49.9228 25.8619 50.0005 25.4695 50 25.0733C49.9995 24.6771 49.9208 24.2848 49.7683 23.9191C49.6159 23.5534 49.3928 23.2214 49.1118 22.942Z" fill="#FE7F2D"/>
</svg>
