<svg width="11" height="20" viewBox="0 0 11 20" fill="none" xmlns="http://www.w3.org/2000/svg">
<path d="M5.5 20C2.46 20 -1.0753e-07 17.54 -2.40413e-07 14.5L-6.99382e-07 4C-7.95984e-07 1.79 1.79 -7.82434e-08 4 -1.74846e-07C6.21 -2.71448e-07 8 1.79 8 4L8 12.5C8 13.88 6.88 15 5.5 15C4.12 15 3 13.88 3 12.5L3 5L5 5L5 12.59C5 13.14 6 13.14 6 12.59L6 4C6 2.9 5.1 2 4 2C2.9 2 2 2.9 2 4L2 14.5C2 16.43 3.57 18 5.5 18C7.43 18 9 16.43 9 14.5L9 5L11 5L11 14.5C11 17.54 8.54 20 5.5 20Z" fill="#EFEFD0"/>
</svg>
