<svg width="28" height="30" viewBox="0 0 28 30" fill="none" xmlns="http://www.w3.org/2000/svg">
<path d="M14.413 4.19357C10.9392 4.19357 8.11304 6.86152 8.11304 10.1408C8.11304 12.1767 9.2006 14.0499 11.0223 15.1517C12.8824 16.2767 15.1659 16.3963 17.2878 15.4747C17.7393 15.2786 17.937 14.774 17.7292 14.3478C17.5215 13.9215 16.9871 13.7349 16.5355 13.931C14.9839 14.6049 13.3282 14.5283 11.9933 13.7209C10.6907 12.9331 9.91304 11.5947 9.91304 10.1408C9.91304 7.79847 11.9317 5.89279 14.413 5.89279C16.8943 5.89279 18.913 7.79847 18.913 10.1408C18.913 10.6093 18.5093 10.9904 18.013 10.9904C17.5596 10.9904 17.136 10.6658 17.1132 10.1538C17.1131 10.1494 17.113 10.1451 17.113 10.1408C17.113 8.73541 15.9018 7.59201 14.413 7.59201C12.9243 7.59201 11.713 8.73541 11.713 10.1408C11.713 11.5463 12.9243 12.6897 14.413 12.6897C15.104 12.6897 15.7349 12.4431 16.213 12.0386C16.691 12.4432 17.322 12.6897 18.013 12.6897C19.5018 12.6897 20.713 11.5463 20.713 10.1408C20.713 6.86152 17.8869 4.19357 14.413 4.19357ZM15.3004 10.2771C15.2309 10.6809 14.86 10.9904 14.413 10.9904C13.9168 10.9904 13.513 10.6093 13.513 10.1408C13.513 9.67236 13.9168 9.29123 14.413 9.29123C14.8745 9.29123 15.2554 9.62088 15.3067 10.0437C15.2933 10.1209 15.2911 10.1995 15.3004 10.2771Z" fill="#F5F5F5"/>
<path d="M27.913 11.952C27.9128 11.7323 27.8191 11.5127 27.6494 11.3526L24.3131 8.20301V1.64476C24.3131 1.17555 23.9101 0.795151 23.4131 0.795151H5.41309C4.91605 0.795151 4.51309 1.17555 4.51309 1.64476V8.20301L1.17673 11.3526C1.17361 11.3555 1.17097 11.3588 1.16791 11.3618C0.999246 11.5258 0.913506 11.7418 0.913146 11.952C0.913146 11.9526 0.913086 11.9531 0.913086 11.9536V27.2463C0.913086 28.6536 2.12605 29.7952 3.61309 29.7952H25.2131C26.7034 29.7952 27.9131 28.6506 27.9131 27.2463V11.9536C27.9131 11.9531 27.913 11.9526 27.913 11.952ZM24.3131 10.606L25.7403 11.9534L24.3131 13.3007V10.606ZM6.31309 8.5552C6.31309 8.55503 6.31309 8.5548 6.31309 8.55463V2.49437H22.5131V8.55463C22.5131 8.5548 22.5131 8.55503 22.5131 8.5552V14.9999L17.6403 19.5998H11.1859L6.31309 14.9999V8.5552ZM4.51309 10.606V13.3007L3.08587 11.9534L4.51309 10.606ZM2.71309 26.8944V14.0045L9.54031 20.4494L2.71309 26.8944ZM3.98593 28.0959L11.1859 21.2991H17.6403L24.8402 28.0959H3.98593ZM26.1131 26.8944L19.2859 20.4494L26.1131 14.0045V26.8944Z" fill="#EFEFD0"/>
</svg>
