<svg width="25" height="25" viewBox="0 0 25 25" fill="none" xmlns="http://www.w3.org/2000/svg">
<path d="M12.5 0C5.59642 0 0 5.59642 0 12.5C0 19.4036 5.59642 25 12.5 25C19.4036 25 25 19.4036 25 12.5C25 5.59642 19.4036 0 12.5 0ZM18.4039 17.4775C18.3237 17.5716 16.3991 19.7825 12.8671 19.7825C8.59834 19.7825 5.58463 16.594 5.58463 12.4454C5.58463 8.34748 8.70983 5.21754 12.8307 5.21754C16.2055 5.21754 17.9701 7.09834 18.0435 7.17843C18.134 7.27706 18.1892 7.40292 18.2005 7.5363C18.2118 7.66968 18.1785 7.80303 18.1059 7.91547L16.9779 9.6622C16.7738 9.97808 16.334 10.0327 16.0588 9.77787C16.0471 9.76709 14.7217 8.57425 12.9399 8.57425C10.6155 8.57425 9.21426 10.2665 9.21426 12.409C9.21426 14.4051 10.5003 16.4258 12.9581 16.4258C14.9085 16.4258 16.2484 14.9974 16.2617 14.983C16.5204 14.7025 16.9703 14.7293 17.1946 15.036L18.4318 16.7282C18.5121 16.838 18.553 16.9717 18.548 17.1077C18.5429 17.2436 18.4922 17.3739 18.4039 17.4775Z" fill="#FE7F2D"/>
</svg>
