<svg width="40" height="40" viewBox="0 0 40 40" fill="none" xmlns="http://www.w3.org/2000/svg">
<path fill-rule="evenodd" clip-rule="evenodd" d="M0.351342 0.434444C0.476111 0.297669 0.627759 0.188432 0.796685 0.11365C0.965611 0.0388673 1.14814 0.000167418 1.33271 0L38.6672 0C38.8517 8.64084e-05 39.0342 0.0386725 39.2031 0.113318C39.372 0.187963 39.5237 0.297043 39.6485 0.433659C39.7733 0.570274 39.8686 0.731452 39.9283 0.906998C39.988 1.08254 40.0108 1.26864 39.9953 1.45351L37.3285 33.4093C37.3065 33.6703 37.2089 33.9192 37.0477 34.1251C36.8866 34.331 36.669 34.4849 36.4218 34.5678L20.4213 39.9313C20.1478 40.0229 19.8521 40.0229 19.5786 39.9313L3.57811 34.5678C3.33095 34.4849 3.11336 34.331 2.95223 34.1251C2.79109 33.9192 2.69346 33.6703 2.67142 33.4093L0.00466383 1.45351C-0.010741 1.26878 0.0121134 1.08284 0.0717838 0.907434C0.131454 0.732032 0.226644 0.570978 0.351342 0.434444ZM29.3336 8.04526H10.6663V10.727H26.6669V16.0905H15.9998V18.7723H26.6669V24.5112L20 26.7451L13.3331 24.5112V21.454H10.6663V26.4421L20 29.5717L29.3336 26.4421V8.04526Z" fill="#FE7F2D"/>
</svg>
