<svg width="24" height="24" viewBox="0 0 24 24" fill="none" xmlns="http://www.w3.org/2000/svg">
<path d="M21.8968 10.84C21.7239 10.8533 21.5625 10.92 21.4473 11.0667L20.2948 12.4L22.6574 15.0667L23.8098 13.7333C24.0634 13.4533 24.0634 12.9867 23.8098 12.7067L22.3808 11.0667C22.2656 10.9285 22.1087 10.8472 21.9429 10.84H21.8968ZM19.6379 13.1733L12.6771 21.2533V24H15.0511L22.0351 15.9067L19.6379 13.1733ZM20.7443 0H2.30492C1.69362 0 1.10735 0.280951 0.675096 0.781048C0.242839 1.28115 0 1.95942 0 2.66667V18.6667C0 19.3739 0.242839 20.0522 0.675096 20.5523C1.10735 21.0524 1.69362 21.3333 2.30492 21.3333H10.3721V20.1467L19.8684 9.18667C20.4101 8.53333 21.1592 8.17333 21.9429 8.17333C22.3347 8.17333 22.7265 8.25333 23.0953 8.42667V2.66667C23.0953 1.17333 22.0351 0 20.7443 0V0ZM20.7443 5.33333L11.5246 12L2.30492 5.33333V2.66667L11.5246 9.33333L20.7443 2.66667" fill="#EFEFD0"/>
</svg>
