<svg width="30" height="40" viewBox="0 0 30 40" fill="none" xmlns="http://www.w3.org/2000/svg">
<path d="M6.92308 0C5.08696 0 3.32605 0.632141 2.02772 1.75736C0.729394 2.88258 0 4.4087 0 6C0 7.5913 0.729394 9.11742 2.02772 10.2426C3.32605 11.3679 5.08696 12 6.92308 12H23.0769C24.913 12 26.6739 11.3679 27.9723 10.2426C29.2706 9.11742 30 7.5913 30 6C30 4.4087 29.2706 2.88258 27.9723 1.75736C26.6739 0.632141 24.913 0 23.0769 0H6.92308Z" fill="#FE7F2D"/>
<path d="M23.0769 14C21.2408 14 19.4799 14.6321 18.1815 15.7574C16.8832 16.8826 16.1538 18.4087 16.1538 20C16.1538 21.5913 16.8832 23.1174 18.1815 24.2426C19.4799 25.3679 21.2408 26 23.0769 26C24.913 26 26.6739 25.3679 27.9722 24.2426C29.2706 23.1174 30 21.5913 30 20C30 18.4087 29.2706 16.8826 27.9722 15.7574C26.6739 14.6321 24.913 14 23.0769 14Z" fill="#FE7F2D"/>
<path d="M0 20C0 18.4087 0.729394 16.8826 2.02772 15.7574C3.32605 14.6321 5.08696 14 6.92308 14H13.8462V26H6.92308C5.08696 26 3.32605 25.3679 2.02772 24.2426C0.729394 23.1174 0 21.5913 0 20Z" fill="#FE7F2D"/>
<path d="M6.92308 28C5.55382 28 4.21532 28.3519 3.07682 29.0112C1.93833 29.6705 1.05098 30.6075 0.526991 31.7039C0.00299967 32.8003 -0.1341 34.0067 0.133028 35.1705C0.400156 36.3344 1.05952 37.4035 2.02772 38.2426C2.99593 39.0818 4.22951 39.6532 5.57245 39.8847C6.9154 40.1162 8.3074 39.9974 9.57242 39.5433C10.8375 39.0892 11.9187 38.3201 12.6794 37.3334C13.4401 36.3467 13.8462 35.1867 13.8462 34V28H6.92308Z" fill="#FE7F2D"/>
</svg>
