<svg width="37" height="50" viewBox="0 0 37 50" fill="none" xmlns="http://www.w3.org/2000/svg">
<path d="M3.85 0.100272C4.14778 -0.0079698 4.47025 -0.0290867 4.77961 0.0393968C5.08897 0.10788 5.37239 0.263127 5.59667 0.486939L12.5233 7.42027C12.4838 7.48016 12.4482 7.54251 12.4167 7.60694L0 33.2936L3.85 0.100272ZM0.29 39.8003L16.89 49.7636C17.1109 49.8961 17.3595 49.9756 17.6163 49.9958C17.8731 50.0161 18.1311 49.9765 18.37 49.8803L35.0367 43.2136C35.3747 43.0774 35.6588 42.8342 35.8455 42.5211C36.0321 42.208 36.111 41.8424 36.07 41.4803L32.7367 11.4803C32.7022 11.1774 32.5853 10.8897 32.3986 10.6486C32.212 10.4075 31.9628 10.2223 31.6782 10.113C31.3936 10.0037 31.0845 9.97451 30.7845 10.0287C30.4845 10.0829 30.2051 10.2183 29.9767 10.4203L24.46 15.3236L0.29 39.8003ZM22.5433 12.5203L19.1367 7.41027C18.9783 7.17247 18.7614 6.97939 18.5069 6.84957C18.2523 6.71974 17.9687 6.65753 17.6832 6.66891C17.3977 6.68029 17.1199 6.76488 16.8765 6.91455C16.6331 7.06422 16.4323 7.27395 16.2933 7.52361L15.26 9.38361L5.30667 29.9736L22.5433 12.5203Z" fill="#FE7F2D"/>
</svg>
