<svg width="25" height="20" viewBox="0 0 25 20" fill="none" xmlns="http://www.w3.org/2000/svg">
<path d="M24.7701 6.72288C24.6427 6.54278 24.4711 6.39641 24.2709 6.29703C24.0707 6.19764 23.8481 6.14837 23.6234 6.15366H5.67056C5.29176 6.16928 4.92484 6.28685 4.61067 6.49328C4.29649 6.6997 4.04739 6.98689 3.8911 7.32286C3.88851 7.35871 3.88851 7.39469 3.8911 7.43055L1.58175 15.3841V1.53842H6.71451L8.77869 4.29987C8.85232 4.39787 8.94874 4.47753 9.06008 4.53234C9.17142 4.58715 9.29451 4.61556 9.4193 4.61525H22.1444C22.1444 4.20723 21.9778 3.81593 21.6812 3.52743C21.3845 3.23892 20.9822 3.07683 20.5627 3.07683H9.82265L7.99573 0.630755C7.84848 0.434765 7.65563 0.275446 7.43296 0.165821C7.21028 0.0561954 6.96409 -0.000624564 6.71451 5.17801e-06H1.58175C1.16224 5.17801e-06 0.759918 0.162088 0.463283 0.450596C0.166648 0.739105 0 1.13041 0 1.53842V18.9917C0.0123472 19.2685 0.13629 19.5295 0.344996 19.7181C0.553702 19.9067 0.830379 20.0077 1.11513 19.9994H20.8316C21.0081 20.0062 21.1818 19.9554 21.3252 19.855C21.4685 19.7547 21.5732 19.6105 21.6225 19.4456L24.9362 7.83053C24.9981 7.64593 25.0152 7.44993 24.9864 7.25781C24.9576 7.06568 24.8836 6.88262 24.7701 6.72288ZM20.2068 18.461H2.29353L5.36212 7.83823C5.43701 7.74439 5.54335 7.67906 5.66265 7.65362H23.3229L20.2068 18.461Z" fill="#31313A"/>
</svg>
