<svg width="30" height="30" viewBox="0 0 30 30" fill="none" xmlns="http://www.w3.org/2000/svg">
<path d="M10.8528 26.6669C11.1306 26.6669 11.3412 26.6582 11.4801 26.6409C11.643 26.61 11.7899 26.5283 11.8967 26.4091C12.0356 26.2726 12.1051 26.0754 12.1051 25.8154L12.0958 24.6087C12.0889 23.8395 12.0865 23.2286 12.0865 22.7801L11.6514 22.8516C11.3032 22.9029 10.9505 22.9232 10.5982 22.9122C10.1556 22.9049 9.7143 22.8636 9.27886 22.7887C8.81676 22.7081 8.38191 22.5254 8.01043 22.2558C7.62102 21.98 7.3304 21.5999 7.17716 21.166L6.98735 20.7565C6.82771 20.434 6.62721 20.1307 6.39017 19.853C6.17736 19.5683 5.89377 19.3363 5.56384 19.1771L5.43191 19.0904C5.34105 19.0278 5.25866 18.955 5.18655 18.8738C5.11657 18.7999 5.05883 18.7167 5.01527 18.6268C4.97823 18.5444 5.00832 18.4751 5.10785 18.4231C5.28254 18.3574 5.47098 18.33 5.65874 18.3429L6.03835 18.3971C6.29296 18.4426 6.60544 18.5856 6.97809 18.8218C7.34844 19.0601 7.65629 19.3656 7.89701 19.7447C8.18866 20.23 8.53817 20.6005 8.95018 20.854C9.31386 21.0941 9.74591 21.2269 10.1908 21.2353C10.6075 21.2353 10.9686 21.2072 11.2718 21.1487C11.5669 21.0914 11.8537 21.0012 12.1259 20.88C12.2393 20.0892 12.5472 19.4782 13.0517 19.0536C12.3967 18.9929 11.7475 18.8857 11.1098 18.7329C10.4871 18.5723 9.88836 18.3394 9.32747 18.0396C8.74008 17.7413 8.22103 17.3379 7.7998 16.8523C7.39705 16.3779 7.06605 15.7582 6.8045 14.9891C6.53178 14.1251 6.40144 13.2272 6.41795 12.3264C6.41795 10.8964 6.91792 9.67665 7.91553 8.67136C7.44797 7.59458 7.49195 6.3878 8.04747 5.05102C8.4155 4.94269 8.95944 5.02286 9.6793 5.28935C10.3992 5.55583 10.9292 5.78332 11.2625 5.97398C11.5981 6.16247 11.8643 6.32063 12.068 6.45063C13.2535 6.14245 14.4786 5.98791 15.709 5.99132C16.9589 5.99132 18.1741 6.14298 19.3499 6.4528L20.0675 6.02598C20.5628 5.74433 21.1438 5.48217 21.8127 5.24601C22.484 5.00769 22.9955 4.94269 23.3496 5.05102C23.9191 6.3878 23.97 7.59458 23.5001 8.6692C24.5 9.67665 25 10.8943 25 12.3264C25 13.3317 24.8704 14.2221 24.6111 14.9978C24.3519 15.7734 24.0163 16.393 23.6066 16.861C23.1784 17.3418 22.6569 17.7425 22.0696 18.0418C21.5088 18.3416 20.91 18.5745 20.2874 18.7351C19.6488 18.8873 18.9989 18.9938 18.343 19.0536C19.0004 19.5844 19.3291 20.425 19.3291 21.5733V25.8133C19.3291 26.0148 19.3615 26.1773 19.424 26.3029C19.4534 26.3628 19.4954 26.4165 19.5475 26.4608C19.5996 26.5051 19.6607 26.5391 19.7272 26.5607C19.8661 26.6062 19.9911 26.6366 20.0976 26.6474C20.2063 26.6604 20.3591 26.6669 20.5605 26.6669H10.8551H10.8528Z" fill="#32313A"/>
</svg>
