<svg width="22" height="22" viewBox="0 0 22 19" fill="none" xmlns="http://www.w3.org/2000/svg">
<path d="M8.52958 12.8673C8.52958 13.8443 8.03 15.4429 6.8475 15.4429C5.665 15.4429 5.16542 13.8443 5.16542 12.8673C5.16542 11.8904 5.665 10.2918 6.8475 10.2918C8.03 10.2918 8.52958 11.8904 8.52958 12.8673ZM22 10.5068C22 11.9979 21.8533 13.5778 21.1979 14.9474C19.4608 18.528 14.685 18.4438 11.2658 18.4438C7.79167 18.4438 2.73167 18.57 0.925833 14.9474C0.256667 13.5919 0 11.9979 0 10.5068C0 8.54826 0.637083 6.69722 1.90208 5.19676C1.66375 4.45822 1.54917 3.68228 1.54917 2.91569C1.54917 1.91071 1.77375 1.40588 2.21833 0.494385C4.29458 0.494385 5.62375 0.915075 7.205 2.17714C8.53417 1.85462 9.9 1.70971 11.2704 1.70971C12.5079 1.70971 13.7546 1.84527 14.9554 2.13975C16.5138 0.891703 17.8429 0.494385 19.8962 0.494385C20.3454 1.40588 20.5654 1.91071 20.5654 2.91569C20.5654 3.68228 20.4463 4.4442 20.2125 5.16872C21.4729 6.6832 22 8.54826 22 10.5068ZM19.0529 12.8673C19.0529 10.8153 17.8292 9.00634 15.6842 9.00634C14.8179 9.00634 13.9883 9.16527 13.1175 9.2868C12.4346 9.39431 11.7517 9.43638 11.0504 9.43638C10.3538 9.43638 9.67083 9.39431 8.98333 9.2868C8.12625 9.16527 7.2875 9.00634 6.41667 9.00634C4.27167 9.00634 3.04792 10.8153 3.04792 12.8673C3.04792 16.9714 6.73292 17.6024 9.94125 17.6024H12.1504C15.3725 17.6024 19.0529 16.9761 19.0529 12.8673ZM15.2671 10.2918C14.0846 10.2918 13.585 11.8904 13.585 12.8673C13.585 13.8443 14.0846 15.4429 15.2671 15.4429C16.4496 15.4429 16.9492 13.8443 16.9492 12.8673C16.9492 11.8904 16.4496 10.2918 15.2671 10.2918Z" fill="#EFEFD0"/>
</svg>
