<svg width="30" height="29" viewBox="0 0 30 29" fill="none" xmlns="http://www.w3.org/2000/svg">
<path d="M14.5435 0.795166C6.53221 0.795166 0.043457 7.22289 0.043457 15.1504C0.043457 21.4942 4.19771 26.8737 9.95783 28.7704C10.6828 28.9055 10.9487 28.4612 10.9487 28.0801C10.9487 27.7393 10.9366 26.836 10.9305 25.6393C6.89712 26.5049 6.04646 23.7134 6.04646 23.7134C5.38671 22.0566 4.43333 21.6135 4.43333 21.6135C3.11987 20.7236 4.53483 20.7418 4.53483 20.7418C5.99087 20.8416 6.75575 22.2209 6.75575 22.2209C8.04867 24.4159 10.15 23.7816 10.9789 23.4152C11.1094 22.4863 11.4827 21.8545 11.8972 21.4954C8.677 21.1363 5.29246 19.9018 5.29246 14.4017C5.29246 12.835 5.85433 11.5543 6.78475 10.55C6.62162 10.1872 6.13225 8.72757 6.91162 6.75056C6.91162 6.75056 8.126 6.36586 10.8991 8.22236C12.0591 7.90341 13.2916 7.74515 14.5241 7.73784C15.7566 7.74515 16.9891 7.90341 18.1491 8.22236C20.9041 6.36586 22.1185 6.75056 22.1185 6.75056C22.8979 8.72757 22.4085 10.1872 22.2635 10.55C23.1879 11.5543 23.7497 12.835 23.7497 14.4017C23.7497 19.9164 20.3604 21.1302 17.1341 21.4832C17.6416 21.9142 18.1129 22.7943 18.1129 24.1395C18.1129 26.0605 18.0947 27.6042 18.0947 28.0704C18.0947 28.4466 18.3485 28.8958 19.0916 28.7521C24.8928 26.8676 29.0435 21.4844 29.0435 15.1504C29.0435 7.22289 22.5511 0.795166 14.5435 0.795166Z" fill="#EFEFD0"/>
</svg>
