<svg width="50" height="51" viewBox="0 0 50 51" fill="none" xmlns="http://www.w3.org/2000/svg">
<path fill-rule="evenodd" clip-rule="evenodd" d="M20.0389 4.29466C20.2088 3.10282 20.8029 2.01227 21.7123 1.22332C22.6216 0.434367 23.7851 0 24.9889 0C26.1928 0 27.3563 0.434367 28.2656 1.22332C29.175 2.01227 29.7691 3.10282 29.9389 4.29466L41.7556 11.1913C42.3153 10.7196 42.9718 10.3765 43.6787 10.1863C44.3856 9.99607 45.1257 9.9634 45.8465 10.0906C46.5674 10.2178 47.2516 10.5017 47.8508 10.9223C48.4499 11.3429 48.9494 11.8899 49.3139 12.5247C49.6784 13.1595 49.8991 13.8667 49.9603 14.5961C50.0216 15.3256 49.9219 16.0596 49.6684 16.7463C49.4149 17.433 49.0136 18.0557 48.493 18.5703C47.9724 19.085 47.3452 19.479 46.6556 19.7247V30.2913C47.3462 30.5362 47.9745 30.9298 48.4961 31.4444C49.0177 31.959 49.4199 32.5819 49.6741 33.2691C49.9283 33.9563 50.0284 34.691 49.9673 35.4211C49.9061 36.1513 49.6852 36.8591 49.3203 37.4944C48.9553 38.1298 48.4552 38.6771 47.8552 39.0978C47.2553 39.5184 46.5702 39.8021 45.8486 39.9287C45.1269 40.0553 44.3862 40.0217 43.6789 39.8303C42.9716 39.639 42.315 39.2945 41.7556 38.8213L29.9389 45.7147C29.7691 46.9065 29.175 47.9971 28.2656 48.786C27.3563 49.575 26.1928 50.0093 24.9889 50.0093C23.7851 50.0093 22.6216 49.575 21.7123 48.786C20.8029 47.9971 20.2088 46.9065 20.0389 45.7147L8.22227 38.8213C7.66253 39.2931 7.00603 39.6362 6.29914 39.8264C5.59226 40.0166 4.85223 40.0493 4.13133 39.9221C3.41044 39.7949 2.72626 39.511 2.12713 39.0904C1.528 38.6698 1.02853 38.1227 0.664006 37.4879C0.299484 36.8531 0.0787983 36.146 0.017539 35.4165C-0.0437203 34.6871 0.0559409 33.9531 0.309483 33.2663C0.563024 32.5796 0.964262 31.957 1.48485 31.4423C2.00544 30.9277 2.63268 30.5336 3.32227 30.288V19.7213C2.63268 19.4757 2.00544 19.0816 1.48485 18.567C0.964262 18.0524 0.563024 17.4297 0.309483 16.743C0.0559409 16.0563 -0.0437203 15.3222 0.017539 14.5928C0.0787983 13.8633 0.299484 13.1562 0.664006 12.5214C1.02853 11.8866 1.528 11.3396 2.12713 10.9189C2.72626 10.4983 3.41044 10.2144 4.13133 10.0872C4.85223 9.96007 5.59226 9.99273 6.29914 10.1829C7.00603 10.3731 7.66253 10.7162 8.22227 11.188L20.0389 4.29466ZM20.7889 7.718L9.90227 14.068C10.1259 15.2424 9.92139 16.458 9.32577 17.4945C8.73014 18.5311 7.78285 19.3199 6.65561 19.718V29.5047L20.9889 8.00466C20.919 7.91256 20.8523 7.81806 20.7889 7.72133V7.718ZM23.7589 9.85133L8.99227 32.008C9.29227 32.408 9.53561 32.8547 9.70561 33.338H40.2723C40.4416 32.8602 40.682 32.4107 40.9856 32.0047L26.2223 9.85466C25.415 10.0591 24.5695 10.0591 23.7623 9.85466L23.7589 9.85133ZM28.9923 8.00133L43.3223 29.5047V19.7213C42.1944 19.3231 41.2466 18.5338 40.6509 17.4966C40.0552 16.4593 39.8511 15.2429 40.0756 14.068L29.1889 7.718C29.1256 7.81473 29.0589 7.90923 28.9889 8.00133H28.9923ZM38.8223 36.6713H11.1523L20.7856 42.2913C21.2382 41.5881 21.86 41.0098 22.5941 40.6093C23.3282 40.2087 24.151 39.9989 24.9873 39.9989C25.8235 39.9989 26.6464 40.2087 27.3805 40.6093C28.1145 41.0098 28.7364 41.5881 29.1889 42.2913L38.8223 36.6713ZM24.9889 3.338C24.5469 3.338 24.123 3.51359 23.8104 3.82615C23.4979 4.13871 23.3223 4.56264 23.3223 5.00466C23.3223 5.44669 23.4979 5.87061 23.8104 6.18317C24.123 6.49573 24.5469 6.67133 24.9889 6.67133C25.431 6.67133 25.8549 6.49573 26.1674 6.18317C26.48 5.87061 26.6556 5.44669 26.6556 5.00466C26.6556 4.56264 26.48 4.13871 26.1674 3.82615C25.8549 3.51359 25.431 3.338 24.9889 3.338ZM4.98894 13.338C4.54691 13.338 4.12299 13.5136 3.81043 13.8262C3.49787 14.1387 3.32227 14.5626 3.32227 15.0047C3.32227 15.4467 3.49787 15.8706 3.81043 16.1832C4.12299 16.4957 4.54691 16.6713 4.98894 16.6713C5.43097 16.6713 5.85489 16.4957 6.16745 16.1832C6.48001 15.8706 6.65561 15.4467 6.65561 15.0047C6.65561 14.5626 6.48001 14.1387 6.16745 13.8262C5.85489 13.5136 5.43097 13.338 4.98894 13.338ZM44.9889 13.338C44.5469 13.338 44.123 13.5136 43.8104 13.8262C43.4979 14.1387 43.3223 14.5626 43.3223 15.0047C43.3223 15.4467 43.4979 15.8706 43.8104 16.1832C44.123 16.4957 44.5469 16.6713 44.9889 16.6713C45.431 16.6713 45.8549 16.4957 46.1675 16.1832C46.48 15.8706 46.6556 15.4467 46.6556 15.0047C46.6556 14.5626 46.48 14.1387 46.1675 13.8262C45.8549 13.5136 45.431 13.338 44.9889 13.338ZM4.98894 33.338C4.54691 33.338 4.12299 33.5136 3.81043 33.8262C3.49787 34.1387 3.32227 34.5626 3.32227 35.0047C3.32227 35.4467 3.49787 35.8706 3.81043 36.1832C4.12299 36.4957 4.54691 36.6713 4.98894 36.6713C5.43097 36.6713 5.85489 36.4957 6.16745 36.1832C6.48001 35.8706 6.65561 35.4467 6.65561 35.0047C6.65561 34.5626 6.48001 34.1387 6.16745 33.8262C5.85489 33.5136 5.43097 33.338 4.98894 33.338ZM44.9889 33.338C44.5469 33.338 44.123 33.5136 43.8104 33.8262C43.4979 34.1387 43.3223 34.5626 43.3223 35.0047C43.3223 35.4467 43.4979 35.8706 43.8104 36.1832C44.123 36.4957 44.5469 36.6713 44.9889 36.6713C45.431 36.6713 45.8549 36.4957 46.1675 36.1832C46.48 35.8706 46.6556 35.4467 46.6556 35.0047C46.6556 34.5626 46.48 34.1387 46.1675 33.8262C45.8549 33.5136 45.431 33.338 44.9889 33.338ZM24.9889 43.338C24.5469 43.338 24.123 43.5136 23.8104 43.8261C23.4979 44.1387 23.3223 44.5626 23.3223 45.0047C23.3223 45.4467 23.4979 45.8706 23.8104 46.1832C24.123 46.4957 24.5469 46.6713 24.9889 46.6713C25.431 46.6713 25.8549 46.4957 26.1674 46.1832C26.48 45.8706 26.6556 45.4467 26.6556 45.0047C26.6556 44.5626 26.48 44.1387 26.1674 43.8261C25.8549 43.5136 25.431 43.338 24.9889 43.338Z" fill="#FE7F2D"/>
</svg>
