<svg width="34" height="30" viewBox="0 0 34 30" fill="none" xmlns="http://www.w3.org/2000/svg">
<path d="M16.5492 7.78279L5.66711 17.9524V28.9285C5.66711 29.2126 5.76661 29.4852 5.94371 29.6862C6.12082 29.8871 6.36102 30 6.61149 30L13.2256 29.9806C13.4753 29.9792 13.7143 29.8656 13.8903 29.6648C14.0664 29.464 14.1653 29.1923 14.1653 28.909V22.4992C14.1653 22.215 14.2648 21.9424 14.4419 21.7415C14.619 21.5405 14.8592 21.4276 15.1096 21.4276H18.8871C19.1376 21.4276 19.3778 21.5405 19.5549 21.7415C19.732 21.9424 19.8315 22.215 19.8315 22.4992V28.9043C19.8311 29.0453 19.8553 29.185 19.9025 29.3154C19.9498 29.4458 20.0193 29.5643 20.1071 29.6642C20.1948 29.7641 20.299 29.8433 20.4138 29.8974C20.5286 29.9514 20.6516 29.9792 20.7759 29.9792L27.3877 30C27.6381 30 27.8783 29.8871 28.0554 29.6862C28.2325 29.4852 28.332 29.2126 28.332 28.9285V17.9451L17.4523 7.78279C17.3244 7.6658 17.165 7.60201 17.0008 7.60201C16.8365 7.60201 16.6771 7.6658 16.5492 7.78279ZM33.7386 14.6949L28.8042 10.0799V0.803661C28.8042 0.590517 28.7296 0.386103 28.5968 0.235387C28.4639 0.0846713 28.2838 0 28.0959 0H24.7906C24.6028 0 24.4226 0.0846713 24.2898 0.235387C24.157 0.386103 24.0824 0.590517 24.0824 0.803661V5.66648L18.798 0.733341C18.2909 0.259836 17.6545 0.000946542 16.9978 0.000946542C16.3411 0.000946542 15.7047 0.259836 15.1976 0.733341L0.257045 14.6949C0.185325 14.7622 0.125987 14.8448 0.0824235 14.9381C0.0388596 15.0314 0.0119231 15.1335 0.00315311 15.2387C-0.00561692 15.3438 0.0039514 15.4498 0.0313114 15.5507C0.0586713 15.6516 0.103287 15.7454 0.162608 15.8268L1.6677 17.9029C1.72686 17.9845 1.79963 18.0521 1.88184 18.1018C1.96404 18.1514 2.05408 18.1822 2.14679 18.1924C2.23949 18.2025 2.33306 18.1918 2.42211 18.1609C2.51117 18.1299 2.59397 18.0794 2.66578 18.0121L16.5492 5.03695C16.6771 4.91996 16.8365 4.85617 17.0008 4.85617C17.165 4.85617 17.3244 4.91996 17.4523 5.03695L31.3363 18.0121C31.408 18.0794 31.4907 18.13 31.5796 18.161C31.6685 18.1921 31.762 18.2029 31.8546 18.193C31.9473 18.183 32.0373 18.1525 32.1195 18.103C32.2017 18.0536 32.2745 17.9863 32.3338 17.9049L33.8389 15.8288C33.8982 15.747 33.9426 15.6527 33.9696 15.5513C33.9967 15.45 34.0058 15.3436 33.9965 15.2382C33.9871 15.1328 33.9595 15.0306 33.9153 14.9374C33.871 14.8441 33.811 14.7617 33.7386 14.6949Z" fill="#f5f5f5"/>
</svg>
