<svg width="270" height="265" viewBox="0 0 270 265" fill="none" xmlns="http://www.w3.org/2000/svg">
<path d="M29.3502 106.252H26.0174C22.4408 106.252 19.0108 107.672 16.4818 110.201C13.9529 112.73 12.5321 116.16 12.5321 119.737V193.737C12.5321 197.313 13.9529 200.743 16.4818 203.272C19.0108 205.801 22.4408 207.222 26.0174 207.222H71.7431C75.3196 207.222 78.7496 205.801 81.2786 203.272C83.8076 200.743 85.2283 197.313 85.2283 193.737" stroke="#263238" stroke-width="1.10311" stroke-linecap="round" stroke-linejoin="round" stroke-dasharray="4.41 4.41"/>
<path d="M81.5019 36.4271V21.8104C81.5019 19.6233 82.3695 17.5255 83.9142 15.9773C85.459 14.4291 87.5548 13.5569 89.7419 13.552H149.205C151.395 13.552 153.496 14.4221 155.045 15.9708C156.593 17.5196 157.463 19.6201 157.463 21.8104" stroke="#263238" stroke-width="1.10311" stroke-linecap="round" stroke-linejoin="round" stroke-dasharray="4.41 4.41"/>
<path d="M135 264.275C200.043 264.275 252.77 256.907 252.77 247.819C252.77 238.731 200.043 231.364 135 231.364C69.9576 231.364 17.2301 238.731 17.2301 247.819C17.2301 256.907 69.9576 264.275 135 264.275Z" fill="#FE7F2D"/>
<path opacity="0.5" d="M135 264.275C200.043 264.275 252.77 256.907 252.77 247.819C252.77 238.731 200.043 231.364 135 231.364C69.9576 231.364 17.2301 238.731 17.2301 247.819C17.2301 256.907 69.9576 264.275 135 264.275Z" fill="#EFEFD0"/>
<path d="M246.019 56.037V166.76C246.019 170.38 244.581 173.851 242.022 176.411C239.464 178.971 235.993 180.41 232.373 180.411H37.6272C34.0077 180.41 30.537 178.971 27.9782 176.411C25.4194 173.851 23.982 170.38 23.982 166.76V56.037C23.982 55.7111 23.982 55.4221 24.0251 55.0778C24.2648 51.6334 25.8019 48.4082 28.3263 46.0527C30.8507 43.6972 34.1745 42.3867 37.6272 42.3857H232.373C235.83 42.3872 239.157 43.701 241.682 46.0617C244.207 48.4223 245.742 51.6536 245.976 55.1024C246.006 55.3975 246.019 55.7173 246.019 56.037Z" fill="#EFEFD0" stroke="#263238" stroke-width="1.10311" stroke-linecap="round" stroke-linejoin="round"/>
<path d="M30.6232 60.1939H240.072V162.474C240.072 165.866 238.725 169.12 236.326 171.518C233.927 173.917 230.674 175.265 227.282 175.265H43.4197C40.0275 175.265 36.7742 173.917 34.3756 171.518C31.9769 169.12 30.6293 165.866 30.6293 162.474V60.1939H30.6232Z" fill="#263238"/>
<path opacity="0.2" d="M240.078 60.1939V162.474C240.096 165.847 238.774 169.09 236.402 171.488C234.03 173.887 230.803 175.245 227.429 175.265H43.2722C39.8989 175.245 36.6715 173.887 34.2996 171.488C31.9276 169.09 30.6052 165.847 30.6232 162.474V60.1939H240.078Z" fill="#EFEFD0"/>
<path d="M245.977 55.1029H24.0261C24.2659 51.6586 25.803 48.4334 28.3274 46.0779C30.8518 43.7224 34.1756 42.4119 37.6282 42.4109H232.375C235.827 42.4119 239.151 43.7224 241.675 46.0779C244.2 48.4334 245.737 51.6586 245.977 55.1029Z" fill="#FE7F2D" stroke="#263238" stroke-width="1.10311" stroke-miterlimit="10"/>
<path d="M51.297 48.7317C51.297 49.2097 51.1552 49.6769 50.8897 50.0744C50.6241 50.4718 50.2467 50.7815 49.8051 50.9644C49.3635 51.1473 48.8776 51.1952 48.4088 51.102C47.9401 51.0087 47.5095 50.7785 47.1715 50.4406C46.8335 50.1026 46.6033 49.672 46.5101 49.2032C46.4169 48.7344 46.4647 48.2485 46.6476 47.8069C46.8305 47.3653 47.1403 46.9879 47.5377 46.7224C47.9351 46.4568 48.4023 46.3151 48.8803 46.3151C49.5212 46.3151 50.1359 46.5697 50.5891 47.0229C51.0424 47.4761 51.297 48.0908 51.297 48.7317Z" fill="#263238"/>
<path d="M61.5169 48.7317C61.5169 49.2097 61.3752 49.6769 61.1097 50.0744C60.8441 50.4718 60.4667 50.7815 60.0251 50.9644C59.5835 51.1473 59.0976 51.1952 58.6288 51.102C58.16 51.0087 57.7294 50.7785 57.3915 50.4406C57.0535 50.1026 56.8233 49.672 56.7301 49.2032C56.6368 48.7344 56.6847 48.2485 56.8676 47.8069C57.0505 47.3653 57.3603 46.9879 57.7577 46.7224C58.1551 46.4568 58.6223 46.3151 59.1003 46.3151C59.7412 46.3151 60.3559 46.5697 60.8091 47.0229C61.2623 47.4761 61.5169 48.0908 61.5169 48.7317Z" fill="#263238"/>
<path d="M69.3203 51.1484C70.655 51.1484 71.737 50.0664 71.737 48.7317C71.737 47.3971 70.655 46.3151 69.3203 46.3151C67.9857 46.3151 66.9037 47.3971 66.9037 48.7317C66.9037 50.0664 67.9857 51.1484 69.3203 51.1484Z" fill="#263238"/>
<path d="M240.072 60.1939V162.474C240.072 165.866 238.725 169.12 236.326 171.518C233.927 173.917 230.674 175.265 227.282 175.265H43.4197C40.4591 175.264 37.5903 174.236 35.3027 172.357C33.0151 170.478 31.4503 167.863 30.8753 164.958V164.922C30.719 164.111 30.6407 163.287 30.6416 162.462V60.1939H240.072Z" stroke="#263238" stroke-width="1.10311" stroke-miterlimit="10"/>
<path d="M239.876 76.0098C238.979 75.5062 238.025 75.1119 237.035 74.8353L235.885 69.7006H231.002L229.865 74.8353C228.868 75.1069 227.91 75.5015 227.011 76.0098L222.602 73.1873L219.153 76.6247L221.926 81.0337C221.418 81.9327 221.024 82.891 220.751 83.8869L215.617 85.0245V89.907L220.751 91.0569C221.021 92.0578 221.415 93.0206 221.926 93.9225L219.103 98.3622L222.559 101.812L226.993 98.9894C227.89 99.4986 228.846 99.8951 229.84 100.17L230.984 105.299H235.848L236.992 100.17C237.983 99.8924 238.937 99.496 239.832 98.9894L240.06 99.137V75.8868L239.876 76.0098ZM233.456 93.8425C232.208 93.8425 230.988 93.4724 229.95 92.7788C228.912 92.0853 228.104 91.0996 227.626 89.9464C227.149 88.7932 227.024 87.5243 227.268 86.3003C227.512 85.0763 228.114 83.9521 228.997 83.07C229.88 82.1879 231.004 81.5875 232.229 81.3448C233.453 81.102 234.722 81.2279 235.874 81.7063C237.027 82.1848 238.012 82.9944 238.705 84.0327C239.397 85.0711 239.766 86.2915 239.765 87.5396C239.765 88.3678 239.602 89.1879 239.284 89.953C238.967 90.7182 238.503 91.4133 237.917 91.9986C237.331 92.584 236.635 93.0481 235.87 93.3645C235.104 93.6809 234.284 93.8433 233.456 93.8425Z" fill="#263238"/>
<path d="M151.88 80.9599V70.6661L141.057 68.2617C140.473 66.1705 139.648 64.1543 138.598 62.2539L139.907 60.1939H88.8072L90.0678 62.1986C89.0047 64.0906 88.1786 66.1063 87.6081 68.2002L76.7793 70.6107V80.9292L87.6081 83.3458C88.1787 85.4554 89.0047 87.4874 90.0678 89.3967L84.1215 98.7496L91.4084 106.03L100.755 100.078C102.651 101.145 104.668 101.981 106.763 102.568L109.174 113.36H119.443L121.866 102.544C123.953 101.953 125.964 101.117 127.855 100.053L137.208 106.006L144.489 98.725L138.579 89.3721C139.627 87.4747 140.452 85.4629 141.039 83.3765L151.88 80.9599ZM114.37 89.1138C111.739 89.1138 109.167 88.3337 106.98 86.8722C104.793 85.4107 103.088 83.3334 102.081 80.903C101.075 78.4726 100.811 75.7982 101.324 73.2181C101.838 70.638 103.104 68.2681 104.965 66.4079C106.825 64.5478 109.195 63.281 111.775 62.7678C114.355 62.2546 117.029 62.518 119.46 63.5247C121.89 64.5314 123.967 66.2362 125.429 68.4235C126.89 70.6108 127.67 73.1823 127.67 75.813C127.671 77.5599 127.328 79.2899 126.66 80.9039C125.991 82.518 125.012 83.9846 123.777 85.2199C122.541 86.4551 121.075 87.4348 119.461 88.103C117.846 88.7711 116.117 89.1146 114.37 89.1138Z" fill="#263238"/>
<path d="M83.5804 151.645L84.017 143.473L75.5495 141.087C75.1564 139.408 74.5747 137.778 73.8154 136.229L78.9316 129.047L73.4465 122.965L65.7845 127.27C64.32 126.348 62.7538 125.599 61.1173 125.038L59.6537 116.355L51.4875 115.98L49.1262 124.472C47.4438 124.849 45.8128 125.427 44.2683 126.194L37.0922 121.084L30.9983 126.563L35.3396 134.231C34.4089 135.689 33.6574 137.254 33.1013 138.892L30.6416 139.298V150.366L32.4372 150.871C32.8097 152.555 33.3858 154.189 34.1528 155.735L30.6232 160.685L30.8569 164.922V164.958L34.5034 168.999L42.1776 164.663C43.6396 165.604 45.2111 166.361 46.8572 166.92L48.2961 175.258L48.3637 175.609L56.5299 176.039L56.7451 175.258L58.8912 167.553C60.5812 167.175 62.2202 166.597 63.7737 165.832L70.9376 170.936L77.0253 165.463L72.7209 157.788C73.6429 156.332 74.3842 154.769 74.9284 153.133L83.5804 151.645ZM61.8921 138.886C60.4932 137.33 58.6643 136.224 56.6368 135.707C54.6092 135.191 52.4741 135.288 50.5014 135.985C48.5288 136.682 46.8073 137.949 45.5548 139.625C44.3022 141.301 43.5749 143.311 43.4647 145.4C43.3546 147.49 43.8666 149.565 44.936 151.363C46.0054 153.161 47.5841 154.602 49.4725 155.503C51.3609 156.404 53.474 156.724 55.5446 156.424C57.6152 156.124 59.5503 155.216 61.1049 153.816C63.1807 151.941 64.429 149.319 64.5765 146.526C64.724 143.732 63.7588 140.994 61.8921 138.91V138.886Z" fill="#263238"/>
<path d="M148.898 139.464C149.214 138.198 149.381 136.9 149.396 135.596L155.268 132.521L153.645 126.563L147.016 126.87C146.345 125.756 145.546 124.725 144.636 123.795L146.598 117.456L141.248 114.381L136.771 119.263C135.508 118.959 134.215 118.794 132.916 118.772L129.841 112.899L123.889 114.516L124.202 121.151C123.089 121.823 122.057 122.621 121.128 123.531L114.782 121.569L111.707 126.913L116.626 131.384C116.308 132.644 116.145 133.939 116.141 135.239L110.256 138.314L111.879 144.266L118.52 143.953C119.179 145.072 119.974 146.105 120.888 147.027L118.914 153.336L124.27 156.411L128.722 151.565C129.987 151.884 131.286 152.047 132.59 152.051L135.664 157.93L141.617 156.313L141.352 150.643L141.309 149.671C142.439 149.007 143.484 148.208 144.421 147.292L150.761 149.259L153.38 144.684L153.823 143.91L148.898 139.464ZM134.834 143.079C133.308 143.5 131.691 143.459 130.188 142.959C128.685 142.46 127.365 141.526 126.394 140.275C125.423 139.024 124.846 137.513 124.735 135.933C124.624 134.354 124.984 132.777 125.771 131.402C126.558 130.028 127.734 128.918 129.153 128.214C130.571 127.509 132.166 127.242 133.736 127.445C135.307 127.649 136.781 128.314 137.973 129.357C139.165 130.4 140.02 131.773 140.43 133.302C140.977 135.341 140.695 137.512 139.647 139.344C138.599 141.176 136.869 142.518 134.834 143.079Z" fill="#263238"/>
<path d="M216.982 149.942L218.335 141.764L210.058 138.437C209.87 136.694 209.472 134.98 208.871 133.333L214.83 126.698L210.009 119.934L201.793 123.42C200.429 122.327 198.939 121.402 197.354 120.666L196.874 111.755L188.695 110.402L185.344 118.642C183.609 118.846 181.902 119.249 180.259 119.842L173.605 113.883L166.872 118.704L170.365 126.913C169.403 128.113 168.569 129.409 167.874 130.781C167.782 130.972 167.684 131.162 167.597 131.353L158.693 131.845L157.334 140.011L158.675 140.552L165.611 143.35C165.8 145.085 166.199 146.79 166.798 148.429L160.827 155.107L165.654 161.872L173.863 158.366C175.223 159.47 176.712 160.403 178.297 161.146L178.758 170.013L186.931 171.366L190.276 163.187C192.015 162.997 193.725 162.597 195.367 161.995L202.009 167.953L208.773 163.126L205.28 154.911C206.393 153.545 207.332 152.048 208.078 150.452L216.982 149.942ZM194.045 149.573C192.325 150.808 190.277 151.504 188.16 151.574C186.044 151.645 183.954 151.086 182.155 149.969C180.357 148.851 178.93 147.226 178.055 145.297C177.18 143.369 176.897 141.224 177.241 139.135C177.585 137.046 178.541 135.105 179.988 133.559C181.435 132.013 183.308 130.931 185.37 130.449C187.432 129.968 189.591 130.108 191.573 130.854C193.555 131.599 195.271 132.916 196.505 134.637C198.158 136.945 198.826 139.816 198.362 142.617C197.899 145.418 196.341 147.92 194.033 149.573H194.045Z" fill="#263238"/>
<path d="M106.148 89.3967H41.8393C37.387 89.3967 33.7777 93.006 33.7777 97.4583V186.493C33.7777 190.945 37.387 194.555 41.8393 194.555H106.148C110.6 194.555 114.21 190.945 114.21 186.493V97.4583C114.21 93.006 110.6 89.3967 106.148 89.3967Z" fill="#FE7F2D" stroke="#263238" stroke-width="1.10311" stroke-miterlimit="10"/>
<path opacity="0.2" d="M106.148 89.3967H41.8393C37.387 89.3967 33.7777 93.006 33.7777 97.4583V186.493C33.7777 190.945 37.387 194.555 41.8393 194.555H106.148C110.6 194.555 114.21 190.945 114.21 186.493V97.4583C114.21 93.006 110.6 89.3967 106.148 89.3967Z" fill="black"/>
<path d="M121.693 105.403V194.438C121.694 195.497 121.486 196.546 121.081 197.525C120.677 198.504 120.083 199.393 119.334 200.142C118.586 200.892 117.697 201.486 116.718 201.891C115.74 202.297 114.691 202.506 113.632 202.506H49.323C48.2643 202.505 47.2162 202.296 46.2384 201.89C45.2606 201.484 44.3724 200.889 43.6243 200.14C42.8763 199.391 42.2832 198.502 41.8788 197.523C41.4744 196.545 41.2667 195.497 41.2675 194.438V105.403C41.2675 103.266 42.116 101.217 43.6265 99.7048C45.137 98.1932 47.186 97.3431 49.323 97.3415H113.632C115.77 97.3415 117.82 98.1908 119.332 99.7027C120.844 101.215 121.693 103.265 121.693 105.403Z" fill="#EFEFD0" stroke="#263238" stroke-width="1.10311" stroke-linecap="round" stroke-linejoin="round"/>
<path d="M121.693 105.403V110.169H41.2675V105.403C41.2675 103.266 42.116 101.217 43.6265 99.7048C45.137 98.1932 47.186 97.3431 49.323 97.3415H113.632C115.77 97.3415 117.82 98.1908 119.332 99.7027C120.844 101.215 121.693 103.265 121.693 105.403Z" fill="#FE7F2D" stroke="#263238" stroke-width="1.10311" stroke-miterlimit="10"/>
<path d="M68.6193 115.691H48.831V119.011H68.6193V115.691Z" fill="#FE7F2D"/>
<path d="M68.6193 145.447H48.831V148.768H68.6193V145.447Z" fill="#FE7F2D"/>
<path d="M68.6193 172.43H48.831V175.75H68.6193V172.43Z" fill="#FE7F2D"/>
<path d="M105.029 123.912H48.831V126.347H105.029V123.912Z" fill="#263238"/>
<path d="M94.8949 128.567H48.831V130.941H94.8949V128.567Z" fill="#263238"/>
<path d="M100.927 133.148H48.831V135.522H100.927V133.148Z" fill="#263238"/>
<path d="M100.927 137.723H48.831V140.097H100.927V137.723Z" fill="#263238"/>
<path d="M105.029 150.895H48.831V153.33H105.029V150.895Z" fill="#263238"/>
<path d="M94.8949 155.55H48.831V157.924H94.8949V155.55Z" fill="#263238"/>
<path d="M100.927 160.131H48.831V162.505H100.927V160.131Z" fill="#263238"/>
<path d="M105.029 180.522H48.831V182.957H105.029V180.522Z" fill="#263238"/>
<path d="M94.8949 185.183H48.831V187.557H94.8949V185.183Z" fill="#263238"/>
<path d="M100.927 189.764H48.831V192.138H100.927V189.764Z" fill="#263238"/>
<path d="M212.339 35.6031V71.5885C212.339 72.8511 212.09 74.1015 211.607 75.268C211.124 76.4344 210.415 77.4943 209.522 78.3868C208.629 79.2794 207.569 79.9872 206.402 80.4699C205.235 80.9525 203.984 81.2005 202.722 81.1997H119.842C118.58 81.2005 117.329 80.9525 116.162 80.4699C114.996 79.9872 113.935 79.2794 113.042 78.3868C112.149 77.4943 111.441 76.4344 110.957 75.268C110.474 74.1015 110.225 72.8511 110.225 71.5885V35.6031C110.227 33.0529 111.24 30.6077 113.044 28.8044C114.847 27.0011 117.292 25.9874 119.842 25.9857H202.722C205.272 25.9857 207.719 26.999 209.522 28.8026C211.326 30.6062 212.339 33.0524 212.339 35.6031Z" fill="#EFEFD0" stroke="#222221" stroke-width="1.10311" stroke-miterlimit="10"/>
<path d="M212.339 35.6031V36.4271H110.225V35.6031C110.227 33.0529 111.24 30.6077 113.044 28.8044C114.847 27.0011 117.292 25.9874 119.842 25.9857H202.722C205.272 25.9857 207.719 26.999 209.522 28.8026C211.326 30.6062 212.339 33.0524 212.339 35.6031Z" fill="#FE7F2D" stroke="#263238" stroke-width="1.10311" stroke-miterlimit="10"/>
<path d="M125.229 32.9282C125.023 33.135 124.76 33.2759 124.474 33.3331C124.187 33.3903 123.89 33.3613 123.62 33.2497C123.35 33.1381 123.12 32.949 122.957 32.7062C122.795 32.4634 122.709 32.178 122.709 31.8859C122.709 31.5939 122.795 31.3084 122.957 31.0656C123.12 30.8228 123.35 30.6337 123.62 30.5221C123.89 30.4105 124.187 30.3815 124.474 30.4387C124.76 30.4959 125.023 30.6369 125.229 30.8436C125.504 31.1211 125.658 31.4956 125.658 31.8859C125.658 32.2762 125.504 32.6508 125.229 32.9282Z" fill="#263238"/>
<path d="M132.067 32.9282C131.861 33.135 131.598 33.2759 131.311 33.3331C131.025 33.3903 130.728 33.3613 130.458 33.2497C130.188 33.1381 129.958 32.949 129.795 32.7062C129.633 32.4634 129.546 32.178 129.546 31.8859C129.546 31.5939 129.633 31.3084 129.795 31.0656C129.958 30.8228 130.188 30.6337 130.458 30.5221C130.728 30.4105 131.025 30.3815 131.311 30.4387C131.598 30.4959 131.861 30.6369 132.067 30.8436C132.342 31.1211 132.496 31.4956 132.496 31.8859C132.496 32.2762 132.342 32.6508 132.067 32.9282Z" fill="#263238"/>
<path d="M138.905 32.9282C138.699 33.135 138.436 33.2759 138.149 33.3331C137.863 33.3903 137.566 33.3613 137.296 33.2497C137.026 33.1381 136.796 32.949 136.633 32.7062C136.471 32.4634 136.384 32.178 136.384 31.8859C136.384 31.5939 136.471 31.3084 136.633 31.0656C136.796 30.8228 137.026 30.6337 137.296 30.5221C137.566 30.4105 137.863 30.3815 138.149 30.4387C138.436 30.4959 138.699 30.6369 138.905 30.8436C139.18 31.1211 139.333 31.4956 139.333 31.8859C139.333 32.2762 139.18 32.6508 138.905 32.9282Z" fill="#263238"/>
<path d="M150.115 43.0437H116.737V71.8959H150.115V43.0437Z" stroke="#263238" stroke-width="1.10311" stroke-linecap="round" stroke-linejoin="round" stroke-dasharray="4.41 4.41"/>
<path d="M193.682 43.0437H155.268V45.073H193.682V43.0437Z" fill="#263238"/>
<path d="M184.735 47.2436H155.268V49.2667H184.735V47.2436Z" fill="#263238"/>
<path d="M199.143 51.4251H155.268V53.4728H199.143V51.4251Z" fill="#263238"/>
<path d="M192.631 55.5021H155.268V57.5497H192.631V55.5021Z" fill="#263238"/>
<path d="M215.131 124.915H196.345C194.127 124.915 192.33 126.712 192.33 128.93V139.956C192.33 142.173 194.127 143.971 196.345 143.971H215.131C217.349 143.971 219.146 142.173 219.146 139.956V128.93C219.146 126.712 217.349 124.915 215.131 124.915Z" fill="#EFEFD0" stroke="#263238" stroke-width="1.10311" stroke-linecap="round" stroke-linejoin="round"/>
<path d="M200.982 130.646L195.822 133.88L200.613 138.123" stroke="#263238" stroke-width="1.10311" stroke-linecap="round" stroke-linejoin="round"/>
<path d="M210.378 138.431L215.014 134.483L209.664 130.978" stroke="#263238" stroke-width="1.10311" stroke-linecap="round" stroke-linejoin="round"/>
<path d="M203.49 140.866L207.297 128.924" stroke="#263238" stroke-width="1.10311" stroke-linecap="round" stroke-linejoin="round"/>
<path d="M163.816 244.788C163.816 244.788 145.983 249.898 143.492 250.783C141.229 251.583 135.093 253.735 130.487 253.065C130.042 253.001 129.602 252.906 129.171 252.782C124.504 251.392 122.407 250.095 121.792 247.161C121.177 244.228 123.501 242.064 125.74 240.68C127.978 239.297 140.116 237.851 140.116 237.851L143.05 238.712L163.816 244.788Z" fill="#FE7F2D"/>
<path d="M130.487 253.065C130.042 253.001 129.602 252.906 129.171 252.782C124.504 251.392 122.407 250.095 121.792 247.161C121.177 244.228 123.501 242.064 125.74 240.68C127.978 239.297 140.116 237.851 140.116 237.851L143.05 238.712C140.393 239.942 130.505 240.612 128.347 241.855C126.188 243.097 125.149 245.433 126.422 248.619C127.105 250.279 128.925 251.909 130.487 253.065Z" fill="#EFEFD0"/>
<path d="M161.135 245.513C161.135 245.513 147.742 248.982 142.429 251.201C137.116 253.421 126.988 254.393 123.366 249.818C119.744 245.243 122.948 241.295 126.557 240.416C130.167 239.536 137.466 238.153 141.451 238.712" stroke="#263238" stroke-width="1.10311" stroke-linecap="round" stroke-linejoin="round"/>
<path d="M130.751 252.825C130.751 252.825 123.938 249.086 126.201 243.847C127.873 239.985 136.962 240.822 141.463 238.712" stroke="#263238" stroke-width="1.10311" stroke-linecap="round" stroke-linejoin="round"/>
<path d="M218.132 253.895C217.947 255.74 217.302 257.468 215.457 258.556C214.227 259.282 212.481 259.712 209.978 259.687C203.724 259.607 191.967 255.137 191.967 255.137L180.96 249.049L186.685 239.991L188.253 237.532L192.299 238.442C192.299 238.442 195.65 240.342 199.02 241.855C202.39 243.367 210.574 243.699 213.458 246.018C216.342 248.336 218.445 250.857 218.132 253.895Z" fill="#FE7F2D"/>
<path d="M218.132 253.895C217.947 255.74 217.302 257.468 215.457 258.556C215.988 256.742 215.88 254.801 215.149 253.059C213.92 250.298 209.916 247.862 204.653 247.457C199.389 247.051 195.361 244.591 193.252 243.49C191.604 242.636 188.13 240.766 186.685 239.991L188.253 237.532L192.299 238.442C192.299 238.442 195.65 240.342 199.02 241.855C202.39 243.367 210.574 243.699 213.458 246.018C216.342 248.336 218.445 250.857 218.132 253.895Z" fill="#EFEFD0"/>
<path d="M183.401 250.759C191.324 255.364 200.081 258.355 209.166 259.558C211.171 259.798 213.501 259.835 214.842 258.328C215.199 257.893 215.464 257.391 215.623 256.851C215.781 256.311 215.829 255.745 215.764 255.186C215.525 252.358 213.145 250.119 210.537 248.994C207.93 247.869 205.059 247.61 202.285 246.989C199.527 246.367 196.861 245.392 194.353 244.087C192.36 243.048 190.436 241.787 188.24 241.32C186.045 240.852 183.432 241.418 182.257 243.337" stroke="#263238" stroke-width="1.10311" stroke-linecap="round" stroke-linejoin="round"/>
<path d="M214.104 259.097C215.134 258.604 216.035 257.877 216.734 256.973C217.434 256.07 217.912 255.016 218.132 253.895C218.531 251.232 217.013 248.551 214.879 246.915C212.745 245.28 210.07 244.505 207.432 243.958C204.794 243.41 202.095 243.041 199.567 242.039C195.712 240.526 191.905 237.55 187.884 238.614" stroke="#263238" stroke-width="1.10311" stroke-linecap="round" stroke-linejoin="round"/>
<path d="M195.822 155.495L177.196 148.411L176.963 148.319C176.963 148.319 177.03 147.827 177.086 147.089C177.202 145.601 177.264 143.178 176.563 142.36C175.524 141.13 172.584 142.163 169.713 140.847C166.841 139.531 161.534 141.887 161.534 141.887C161.534 141.887 157.697 141.179 156 143.947C155.139 146.179 155.434 149.481 155.434 149.481L155.084 149.604C152.864 150.434 140.787 154.978 138.235 156.805C135.412 158.803 132.288 179.323 131.286 185.349C130.284 191.376 128.501 196.805 129.404 198.878C130.308 200.95 143.283 210.942 150.748 213.519C158.214 216.095 184.686 215.364 184.686 215.364C184.686 215.364 185.117 215.247 185.885 215.001C190.362 213.562 206.245 207.622 214.676 193.675C214.688 193.7 206.522 166.932 195.822 155.495ZM145.497 190.01C144.126 190.982 144.882 194.745 144.882 194.745L142.552 192.692L148.406 178.296L150.902 189.365C150.902 189.365 146.868 189.045 145.497 190.01ZM192.33 199.154C191.684 199.486 194.174 192.569 192.994 191C191.813 189.432 188.253 189.58 188.253 189.58L188.554 187.692L190.663 176.87L191.364 176.039C191.364 176.039 198.608 188.455 199.905 192.833C199.905 192.845 192.01 199.154 192.33 199.154Z" fill="#FE7F2D"/>
<path d="M160.655 110.599L151.037 120.807C151.037 120.807 149.715 121.981 150.238 124.939C150.761 127.897 151.991 130.474 152.919 130.646C153.654 130.774 154.399 130.84 155.145 130.842C155.145 130.842 157.205 135.307 158.669 137.059C158.669 137.059 159.173 143.953 158.902 145.865C158.902 145.865 162.358 148.884 165.611 149.266C168.864 149.647 173.888 144.666 173.888 144.666L175.118 138.566C175.118 138.566 178.07 134.089 178.266 132.896C178.463 131.703 179.816 132.011 180.48 131.42C181.144 130.83 182.675 128.204 182.94 125.72C183.204 123.236 183.21 120.383 180.326 121.219C177.824 120.549 179.392 115.26 179.392 115.26L174.995 111.386L160.655 110.599Z" fill="#EFEFD0"/>
<path opacity="0.5" d="M177.196 148.411C177.051 148.791 176.885 149.162 176.698 149.524C175.112 152.512 168.2 158.213 168.2 158.213L166.109 151.787L164.965 158.213C162.66 157.204 155.625 151.11 155.625 151.11C155.625 151.11 155.385 150.538 155.096 149.647L155.446 149.524C155.446 149.524 155.151 146.197 156.012 143.99C157.697 141.222 161.547 141.93 161.547 141.93C161.547 141.93 166.853 139.574 169.725 140.89C172.597 142.206 175.536 141.185 176.575 142.403C177.614 143.621 176.975 148.343 176.975 148.343L177.196 148.411Z" fill="#EFEFD0"/>
<path opacity="0.2" d="M195.822 155.495L177.196 148.411L176.963 148.319C176.963 148.319 177.03 147.827 177.086 147.089L176.698 149.505L173.943 153.244C176.888 154.328 179.763 155.593 182.552 157.032C183.887 157.747 184.977 158.847 185.679 160.19C186.38 161.532 186.662 163.054 186.488 164.559L183.057 193.921L181.648 210.592L185.897 215.001C190.374 213.562 206.258 207.622 214.688 193.675C214.688 193.7 206.522 166.932 195.822 155.495ZM192.33 199.154C191.684 199.486 194.174 192.568 192.994 191C191.813 189.432 188.253 189.58 188.253 189.58L188.554 187.692L190.663 176.869L191.364 176.039C191.364 176.039 198.608 188.455 199.905 192.833C199.905 192.845 192.01 199.154 192.33 199.154Z" fill="black"/>
<path opacity="0.2" d="M152.138 191L149.242 181.322C149.242 181.322 144.046 163.606 140.485 159.24L141.42 171.698C141.42 171.698 138.345 186.579 135.535 191C132.725 195.422 132.098 196.535 135.535 196.535C138.973 196.535 147.342 203.201 147.342 203.201L146.696 197.666L152.138 191ZM144.839 194.745L142.508 192.691L148.363 178.296L150.859 189.365C150.859 189.365 146.85 189.063 145.479 190.029C144.107 190.994 144.839 194.745 144.839 194.745Z" fill="black"/>
<path d="M158.669 137.059C158.669 137.059 159.198 142.28 158.669 144.666" stroke="#263238" stroke-width="1.10311" stroke-linecap="round" stroke-linejoin="round"/>
<path d="M174.423 143.965C174.429 142.286 174.623 140.613 175.001 138.978" stroke="#263238" stroke-width="1.10311" stroke-linecap="round" stroke-linejoin="round"/>
<path d="M175.819 114.492C175.819 114.492 178.98 118.458 178.814 121.459C178.648 124.46 178.414 128.014 178.494 131.494C178.574 134.975 172.904 142.268 169.989 142.913C167.075 143.559 164.566 143.725 162.703 141.862C160.839 139.999 158.976 137.41 156.553 134.089C154.131 130.769 154.709 123.482 154.709 123.482" stroke="#263238" stroke-width="1.10311" stroke-linecap="round" stroke-linejoin="round"/>
<path d="M168.206 126.255C168.014 127.345 167.931 128.451 167.96 129.557C167.897 130.49 168.187 131.412 168.772 132.14C169.122 132.497 169.627 132.786 169.694 133.278C169.693 133.499 169.631 133.716 169.516 133.905C169.402 134.095 169.238 134.25 169.042 134.354C168.648 134.553 168.268 134.779 167.905 135.03" stroke="#263238" stroke-width="1.10311" stroke-linecap="round" stroke-linejoin="round"/>
<path d="M163.207 135.411C163.207 135.411 163.57 137.767 166.724 138.258" stroke="#263238" stroke-width="1.10311" stroke-linecap="round" stroke-linejoin="round"/>
<path d="M163.533 128.051C163.533 128.733 163.238 129.281 162.875 129.281C162.512 129.281 162.217 128.733 162.217 128.051C162.217 127.368 162.512 126.821 162.875 126.821C163.238 126.821 163.533 127.374 163.533 128.051Z" fill="#263238"/>
<path d="M172.947 128.346C172.947 129.028 172.652 129.576 172.289 129.576C171.926 129.576 171.631 129.022 171.631 128.346C171.631 127.669 171.926 127.116 172.289 127.116C172.652 127.116 172.947 127.663 172.947 128.346Z" fill="#263238"/>
<path d="M171.047 125.364C171.047 125.364 174.122 122.289 176.698 125.72" stroke="#263238" stroke-width="2.20621" stroke-linecap="round" stroke-linejoin="round"/>
<path d="M164.572 125.425C164.572 125.425 162.629 123.248 159.566 125.425" stroke="#263238" stroke-width="2.20621" stroke-linecap="round" stroke-linejoin="round"/>
<path d="M158.902 139.962C158.902 139.962 160.778 145.127 164.966 146.597C169.153 148.066 174.712 140.448 174.712 140.448L174.423 139.458C174.423 139.458 170.777 144.192 166.724 143.387C162.672 142.581 158.669 137.084 158.669 137.084L158.902 139.962Z" fill="#263238"/>
<path d="M155.145 130.646C155.145 130.646 152.649 131.525 151.984 129.582C151.32 127.639 149.045 122.516 151.037 120.807C153.03 119.097 154.629 123.064 154.629 123.064" stroke="#263238" stroke-width="1.10311" stroke-linecap="round" stroke-linejoin="round"/>
<path d="M178.488 131.703C178.488 131.703 180.806 132.171 181.47 130.228C182.134 128.284 184.409 123.162 182.417 121.453C180.425 119.743 178.826 123.709 178.826 123.709" stroke="#263238" stroke-width="1.10311" stroke-linecap="round" stroke-linejoin="round"/>
<path d="M154.629 128.051C155.496 127.914 156.279 127.452 156.818 126.759C157.147 126.151 157.356 125.485 157.433 124.798C157.661 123.49 157.776 122.165 157.777 120.838C157.75 120.319 157.798 119.799 157.918 119.294C158.103 118.786 158.387 118.32 158.755 117.923C159.622 116.902 160.673 116.041 161.504 114.984C161.948 114.484 162.287 113.9 162.499 113.266C162.71 112.631 162.79 111.96 162.733 111.294C164.636 112.863 166.859 113.995 169.246 114.613C171.633 115.23 174.126 115.317 176.551 114.867C180.947 114.006 185.16 110.15 184.649 105.305C184.553 104.492 184.204 103.73 183.653 103.126C183.102 102.522 182.375 102.105 181.575 101.935C179.404 101.394 177.455 102.55 175.487 103.294C171.902 104.647 168.391 102.322 164.769 101.935C161.694 101.597 157.863 101.984 156.252 105.065C156.252 105.065 150.718 105.717 148.258 110.292C145.798 114.867 150.453 121.194 150.453 121.194C150.453 121.194 152.298 118.931 154.715 123.506L154.629 128.051Z" fill="#263238"/>
<path d="M176.2 113.323C176.2 113.323 174.761 120.825 178.518 124.46C178.518 124.46 179.342 122.203 180.173 121.649C180.771 120.318 181.025 118.857 180.91 117.402C180.795 115.947 180.315 114.544 179.515 113.323C176.735 108.957 176.2 113.323 176.2 113.323Z" fill="#263238"/>
<path opacity="0.2" d="M183.05 104.788C182.72 105.812 182.161 106.747 181.415 107.521C180.669 108.296 179.756 108.89 178.746 109.259C173.531 111.386 168.471 109.031 163.244 108.57C158.982 108.189 154.278 112.038 153.977 116.416" stroke="#EFEFD0" stroke-width="1.10311" stroke-linecap="round" stroke-linejoin="round"/>
<path opacity="0.2" d="M150.761 115.26C150.825 113.533 151.379 111.859 152.359 110.434C153.339 109.01 154.704 107.894 156.295 107.217" stroke="#EFEFD0" stroke-width="1.10311" stroke-linecap="round" stroke-linejoin="round"/>
<path d="M157.463 143.965C159.757 146.355 162.523 148.24 165.587 149.499C165.587 149.499 171.828 147.685 175.001 143.35" stroke="#263238" stroke-width="1.10311" stroke-linecap="round" stroke-linejoin="round"/>
<path d="M163.842 133.058C166.614 131.786 167.83 128.508 166.559 125.736C165.287 122.964 162.009 121.748 159.237 123.019C156.465 124.291 155.249 127.569 156.52 130.341C157.792 133.113 161.07 134.329 163.842 133.058Z" stroke="#263238" stroke-width="1.10311" stroke-linecap="round" stroke-linejoin="round"/>
<path d="M174.542 133.544C177.569 133.172 179.722 130.417 179.35 127.39C178.978 124.363 176.223 122.21 173.196 122.582C170.169 122.954 168.017 125.709 168.388 128.736C168.76 131.763 171.515 133.915 174.542 133.544Z" stroke="#263238" stroke-width="1.10311" stroke-linecap="round" stroke-linejoin="round"/>
<path d="M158.669 141.905C158.109 142.052 157.585 142.31 157.128 142.664C156.67 143.018 156.289 143.46 156.006 143.965C155.028 145.687 155.619 151.104 155.619 151.104C155.619 151.104 160.667 156.097 164.966 158.207L166.232 151.08L168.2 158.207C168.2 158.207 174.853 153.502 176.698 149.524C176.698 149.524 177.313 144.881 176.698 143.375C176.558 142.956 176.292 142.591 175.937 142.33C175.581 142.069 175.153 141.925 174.712 141.917" stroke="#263238" stroke-width="1.10311" stroke-linecap="round" stroke-linejoin="round"/>
<path d="M150.761 189.586C150.761 189.586 148.787 176.365 146.161 170.972" stroke="#263238" stroke-width="1.10311" stroke-linecap="round" stroke-linejoin="round"/>
<path d="M140.485 159.24C142.014 161.412 143.379 163.696 144.568 166.071" stroke="#263238" stroke-width="1.10311" stroke-linecap="round" stroke-linejoin="round"/>
<path d="M192.33 169.109C192.86 166.899 193.586 164.74 194.5 162.659" stroke="#263238" stroke-width="1.10311" stroke-linecap="round" stroke-linejoin="round"/>
<path d="M188.253 189.586C188.253 189.586 189.673 180.522 191.37 173.057" stroke="#263238" stroke-width="1.10311" stroke-linecap="round" stroke-linejoin="round"/>
<path d="M190.663 176.857C192.036 175.037 193.967 173.715 196.161 173.094" stroke="#263238" stroke-width="1.10311" stroke-linecap="round" stroke-linejoin="round"/>
<path d="M176.969 148.319C176.969 148.319 188.425 152.9 195.822 155.501C195.822 155.501 204.923 164.055 214.682 193.7C214.682 193.7 205.741 208.741 188.732 213.562" stroke="#263238" stroke-width="1.10311" stroke-linecap="round" stroke-linejoin="round"/>
<path d="M191.684 199.689L199.905 192.845C199.905 192.845 204.253 189.543 208.773 191.8" stroke="#263238" stroke-width="1.10311" stroke-linecap="round" stroke-linejoin="round"/>
<path d="M191.37 176.039C191.37 176.039 198.165 186.081 199.906 192.845" stroke="#263238" stroke-width="1.10311" stroke-linecap="round" stroke-linejoin="round"/>
<path d="M144.931 195.127L142.527 192.845C142.527 192.845 138.96 192.23 134.914 194.93" stroke="#263238" stroke-width="1.10311" stroke-linecap="round" stroke-linejoin="round"/>
<path d="M142.527 192.845C142.527 192.845 145.515 183.006 148.461 177.97" stroke="#263238" stroke-width="1.10311" stroke-linecap="round" stroke-linejoin="round"/>
<path d="M155.447 149.524C155.447 149.524 138.96 155.71 137.343 157.518C135.726 159.326 129.583 193.915 129.417 197.875C129.275 201.417 142.115 209.368 148.479 212.72" stroke="#263238" stroke-width="1.10311" stroke-linecap="round" stroke-linejoin="round"/>
<path d="M167.776 161.214C167.776 161.429 167.712 161.639 167.592 161.818C167.473 161.997 167.303 162.137 167.104 162.219C166.905 162.302 166.686 162.323 166.475 162.281C166.264 162.239 166.07 162.135 165.918 161.983C165.765 161.831 165.662 161.637 165.62 161.426C165.578 161.215 165.599 160.996 165.682 160.797C165.764 160.598 165.904 160.428 166.083 160.309C166.262 160.189 166.472 160.125 166.687 160.125C166.83 160.124 166.972 160.152 167.105 160.206C167.237 160.261 167.358 160.341 167.459 160.442C167.56 160.543 167.64 160.664 167.695 160.796C167.749 160.929 167.777 161.07 167.776 161.214Z" fill="#263238"/>
<path d="M186.851 219.152H149.34C149.107 219.152 148.883 219.059 148.719 218.894C148.554 218.729 148.461 218.506 148.461 218.272C148.461 218.039 148.554 217.815 148.719 217.651C148.883 217.486 149.107 217.393 149.34 217.393H186.851C187.084 217.393 187.308 217.486 187.472 217.651C187.637 217.815 187.73 218.039 187.73 218.272C187.73 218.506 187.637 218.729 187.472 218.894C187.308 219.059 187.084 219.152 186.851 219.152Z" fill="#263238"/>
<path d="M188.167 216.212L193.191 192.599C193.269 192.233 193.264 191.854 193.176 191.49C193.089 191.126 192.921 190.786 192.685 190.496C192.449 190.205 192.151 189.971 191.813 189.81C191.475 189.65 191.105 189.567 190.731 189.568H146.887C146.516 189.568 146.149 189.65 145.814 189.809C145.478 189.968 145.182 190.199 144.947 190.486C144.712 190.773 144.543 191.109 144.453 191.469C144.363 191.829 144.354 192.205 144.427 192.568L148.934 215.394C149.045 215.955 149.344 216.461 149.781 216.829C150.218 217.197 150.768 217.405 151.339 217.418L185.645 218.205C186.232 218.218 186.804 218.026 187.265 217.662C187.725 217.299 188.044 216.786 188.167 216.212Z" fill="#EFEFD0" stroke="#263238" stroke-width="1.10311" stroke-linecap="round" stroke-linejoin="round"/>
<path d="M172.166 203.194C172.165 203.886 171.959 204.562 171.574 205.137C171.188 205.711 170.642 206.159 170.002 206.423C169.363 206.686 168.659 206.755 167.981 206.619C167.303 206.483 166.68 206.15 166.191 205.66C165.702 205.171 165.37 204.547 165.235 203.869C165.101 203.19 165.17 202.487 165.435 201.848C165.7 201.209 166.149 200.663 166.724 200.279C167.299 199.894 167.976 199.689 168.667 199.689C169.127 199.689 169.583 199.78 170.008 199.956C170.433 200.132 170.819 200.391 171.144 200.716C171.469 201.042 171.726 201.428 171.902 201.854C172.077 202.279 172.167 202.734 172.166 203.194Z" fill="#263238"/>
<path d="M179.047 191.824H184.256" stroke="#263238" stroke-width="1.10311" stroke-linecap="round" stroke-linejoin="round"/>
<path d="M154.174 191.824H173.943" stroke="#263238" stroke-width="1.10311" stroke-linecap="round" stroke-linejoin="round"/>
<path d="M188.253 241.283L184.256 251.773C184.256 251.773 174.06 249.203 161.005 246.528C147.348 243.73 133.088 240.108 125.69 227.127C124.793 225.547 124.19 223.677 124.614 221.907C125.678 217.424 131.514 216.206 135.357 215.757C137.773 215.496 140.201 215.36 142.631 215.351C143.861 215.351 147.951 214.681 148.941 215.413C150.428 216.498 152.016 217.439 153.682 218.223C155.865 219.152 187.73 217.393 187.73 217.393C188.284 216.184 188.624 214.888 188.732 213.562C193.744 211.016 205.335 208.864 210.255 209.817C217.96 211.311 222.455 215.806 221.6 220.517C220.745 225.227 203.724 237.858 188.253 241.283Z" fill="#263238"/>
<path d="M188.253 241.283C188.253 241.283 178.555 238.712 170.635 233.363C162.715 228.013 156.529 221.802 145.491 223.087" stroke="#EFEFD0" stroke-width="1.10311" stroke-linecap="round" stroke-linejoin="round"/>
<path d="M168.821 232.102C173.827 230.663 177.498 227.422 181.513 224.317C185.748 220.918 190.297 217.928 195.097 215.388" stroke="#EFEFD0" stroke-width="1.10311" stroke-linecap="round" stroke-linejoin="round"/>
<path d="M167.056 128.924H168.526" stroke="#263238" stroke-width="1.10311" stroke-linecap="round" stroke-linejoin="round"/>
</svg>
