<svg width="44" height="50" viewBox="0 0 44 50" fill="none" xmlns="http://www.w3.org/2000/svg">
<path d="M23.6696 18.3313L17.4577 0H43.8489L37.6155 18.3847C37.3473 18.4488 37.0837 18.5305 36.8262 18.6293L30.6685 6.06768L24.4929 18.555C24.2238 18.4619 23.9488 18.3872 23.6696 18.3313ZM3.37403 48.3392C11.6749 54.1697 20.8822 42.8876 33.4238 41.4663C40.626 41.0395 45.5213 36.6306 42.732 29.8053C37.546 32.9995 32.6992 28.8138 32.7331 24.6136H28.7924C28.663 28.3635 25.8424 31.3137 21.4702 30.8751C18.048 35.9947 14.0816 38.8712 9.58097 40.3333C6.53907 38.9295 3.67647 35.5101 4.97433 30.9429C4.40957 30.8798 3.8559 30.7409 3.32833 30.5297C-0.85546 38.3421 -1.37245 44.5163 3.37403 48.3392ZM9.55382 24.6142C9.55382 21.6469 6.31954 19.7823 3.7462 21.2659C1.17286 22.7495 1.17266 26.4788 3.7462 27.9623C6.31954 29.446 9.55382 27.5814 9.55382 24.6142ZM26.2929 24.5773C26.2929 21.6102 23.0585 19.7455 20.4852 21.2292C17.9118 22.7129 17.9117 26.442 20.4852 27.9255C23.0586 29.4092 26.2928 27.5446 26.2928 24.5773H26.2929ZM42.9691 24.5773C42.9691 21.6102 39.7347 19.7455 37.1613 21.2292C34.588 22.7129 34.5879 26.442 37.1613 27.9255C39.7348 29.4092 42.9691 27.5446 42.9691 24.5773Z" fill="#FE7F2D"/>
</svg>
