<svg width="40" height="40" viewBox="0 0 40 40" fill="none" xmlns="http://www.w3.org/2000/svg">
<path d="M0 0H40V40H0V0ZM36.725 30.4625C36.4325 28.6325 35.24 27.1025 31.7188 25.6713C30.495 25.0988 29.1275 24.695 28.7238 23.77C28.5737 23.2225 28.5475 22.9237 28.645 22.5975C28.8988 21.5162 30.1688 21.1975 31.1712 21.4975C31.8225 21.6987 32.4212 22.1938 32.7988 22.995C34.5238 21.8687 34.5238 21.8687 35.7225 21.12C35.2738 20.4237 35.0525 20.1175 34.7463 19.825C33.6975 18.6462 32.2987 18.0475 30.0262 18.1L28.8475 18.25C27.7212 18.5238 26.6475 19.1225 25.9963 19.9237C24.1013 22.0725 24.6487 25.8225 26.9462 27.3787C29.2187 29.0775 32.545 29.4487 32.975 31.0513C33.3725 33.005 31.5237 33.63 29.6937 33.4013C28.3462 33.1012 27.5975 32.425 26.77 31.175L23.7225 32.9263C24.0675 33.7275 24.4713 34.0725 25.07 34.775C27.9675 37.6987 35.22 37.5488 36.5212 33.1012C36.5662 32.9513 36.9188 31.9225 36.645 30.3538L36.725 30.4625ZM21.7512 18.385H18.0075C18.0075 21.6138 17.9875 24.8237 17.9875 28.06C17.9875 30.1112 18.0912 31.9987 17.76 32.5788C17.2063 33.725 15.7938 33.5812 15.1488 33.38C14.4913 33.055 14.1525 32.605 13.7688 31.9538C13.6575 31.7775 13.58 31.6287 13.5538 31.6287L10.5138 33.5037C11.0213 34.5525 11.7638 35.4575 12.7213 36.03C14.1475 36.8825 16.0613 37.1562 18.0662 36.7075C19.3687 36.33 20.495 35.555 21.08 34.3575C21.9325 32.8075 21.75 30.9075 21.7438 28.7775C21.7638 25.3525 21.7438 21.9287 21.7438 18.4775L21.7512 18.385Z" fill="#FE7F2D"/>
</svg>
