<svg width="31" height="30" viewBox="0 0 31 30" fill="none" xmlns="http://www.w3.org/2000/svg">
<path d="M19.3012 10.846C18.4168 10.843 17.5406 11.0143 16.7225 11.3503C15.9044 11.6863 15.1607 12.1803 14.5337 12.804C13.9068 13.4277 13.409 14.169 13.0688 14.9853C12.7286 15.8016 12.5527 16.677 12.5512 17.5614V24.346C12.5512 24.6214 12.6606 24.8855 12.8554 25.0803C13.0501 25.275 13.3142 25.3844 13.5897 25.3844H16.0127C16.2882 25.3844 16.5523 25.275 16.747 25.0803C16.9418 24.8855 17.0512 24.6214 17.0512 24.346V17.5614C17.051 17.2468 17.117 16.9358 17.2451 16.6485C17.3731 16.3612 17.5603 16.1041 17.7944 15.894C18.0284 15.6839 18.3041 15.5255 18.6035 15.429C18.9029 15.3326 19.2193 15.3004 19.532 15.3344C20.0927 15.4051 20.6081 15.6791 20.9803 16.1044C21.3525 16.5298 21.5556 17.077 21.5512 17.6421V24.346C21.5512 24.6214 21.6606 24.8855 21.8554 25.0803C22.0501 25.275 22.3142 25.3844 22.5897 25.3844H25.0127C25.2882 25.3844 25.5523 25.275 25.747 25.0803C25.9418 24.8855 26.0512 24.6214 26.0512 24.346V17.5614C26.0497 16.677 25.8738 15.8016 25.5336 14.9853C25.1934 14.169 24.6956 13.4277 24.0687 12.804C23.4417 12.1803 22.698 11.6863 21.8799 11.3503C21.0618 11.0143 20.1856 10.843 19.3012 10.846Z" fill="#32313A"/>
<path d="M9.4359 11.8843H6.32051C5.74699 11.8843 5.28205 12.3492 5.28205 12.9227V24.3458C5.28205 24.9193 5.74699 25.3843 6.32051 25.3843H9.4359C10.0094 25.3843 10.4744 24.9193 10.4744 24.3458V12.9227C10.4744 12.3492 10.0094 11.8843 9.4359 11.8843Z" fill="#32313A"/>
<path d="M7.8782 9.80779C9.31202 9.80779 10.4744 8.64545 10.4744 7.21163C10.4744 5.77782 9.31202 4.61548 7.8782 4.61548C6.44439 4.61548 5.28205 5.77782 5.28205 7.21163C5.28205 8.64545 6.44439 9.80779 7.8782 9.80779Z" fill="#32313A"/>
</svg>
