<svg width="22" height="22" viewBox="0 0 22 22" fill="none" xmlns="http://www.w3.org/2000/svg">
<path d="M20.4286 0.5H1.56652C0.702232 0.5 0 1.17778 0 2.00981V19.9312C0 20.7632 0.702232 21.441 1.56652 21.441H20.4286C21.2929 21.441 22 20.7632 22 19.9312V2.00981C22 1.17778 21.2929 0.5 20.4286 0.5ZM6.64911 18.4494H3.38839V8.45571H6.65402V18.4494H6.64911ZM5.01875 7.09081C3.97277 7.09081 3.12812 6.28215 3.12812 5.29119C3.12812 4.30023 3.97277 3.49157 5.01875 3.49157C6.05982 3.49157 6.90937 4.30023 6.90937 5.29119C6.90937 6.28682 6.06473 7.09081 5.01875 7.09081ZM18.8719 18.4494H15.6112V13.5881C15.6112 12.4289 15.5866 10.9378 13.917 10.9378C12.2179 10.9378 11.9576 12.1999 11.9576 13.504V18.4494H8.69688V8.45571H11.825V9.82062H11.8692C12.3062 9.03533 13.3719 8.20797 14.958 8.20797C18.258 8.20797 18.8719 10.2787 18.8719 12.9711V18.4494Z" fill="#EFEFD0"/>
</svg>
