<svg width="25" height="20" viewBox="0 0 25 20" fill="none" xmlns="http://www.w3.org/2000/svg">
<path d="M17.1875 13.729L19.0156 6.06452C20.25 5.50968 21.0938 4.45161 21.0938 3.22581C21.0938 2.37027 20.6822 1.54977 19.9496 0.944817C19.2171 0.339861 18.2235 0 17.1875 0C16.1515 0 15.1579 0.339861 14.4254 0.944817C13.6928 1.54977 13.2812 2.37027 13.2812 3.22581C13.2812 4.45161 14.125 5.50968 15.3594 6.06452L17.1875 13.729ZM17.1875 1.29032C18.4844 1.29032 19.5312 2.15484 19.5312 3.22581C19.5312 4.29677 18.4844 5.16129 17.1875 5.16129C15.8906 5.16129 14.8438 4.29677 14.8438 3.22581C14.8438 2.15484 15.8906 1.29032 17.1875 1.29032ZM19.875 7.48387L25 5.76774V17.3806L17.375 20L7.8125 17.3806L0 19.9613V8.34839L7.8125 5.76774L14.4844 7.5871L17.1875 17.0065L19.875 7.48387Z" fill="#EFEFD0"/>
</svg>
