<svg width="50" height="44" viewBox="0 0 50 44" fill="none" xmlns="http://www.w3.org/2000/svg">
<path d="M42.1428 29.5133C42.354 29.392 42.5297 29.2172 42.652 29.0066C42.7744 28.796 42.8393 28.5569 42.84 28.3133L42.865 20.2756C42.8658 20.0319 42.9306 19.7928 43.053 19.5821C43.1754 19.3715 43.351 19.1967 43.5623 19.0754L47.9193 16.5726C48.1305 16.4513 48.3698 16.3877 48.6134 16.3881C48.8569 16.3885 49.096 16.4529 49.3068 16.5749C49.5176 16.6968 49.6926 16.8721 49.8142 17.083C49.9359 17.294 50 17.5332 50 17.7767V32.3896C50 32.634 49.9355 32.874 49.8131 33.0854C49.6907 33.2969 49.5146 33.4723 49.3027 33.5939L32.8594 43.0387C32.6493 43.1593 32.4114 43.2229 32.1691 43.2231C31.9269 43.2233 31.6888 43.1602 31.4785 43.04L18.5742 35.6592C18.3616 35.5378 18.1849 35.3623 18.0619 35.1506C17.939 34.9389 17.8741 34.6985 17.874 34.4537V27.0853C17.874 27.0771 17.8838 27.0717 17.8922 27.0756C17.899 27.0799 17.9088 27.0756 17.9088 27.0658V27.0576C17.9088 27.0521 17.9115 27.0465 17.9172 27.0437L28.5453 20.9381C28.5551 20.9324 28.5508 20.9172 28.5396 20.9172C28.5367 20.9172 28.5339 20.916 28.5318 20.9139C28.5297 20.9118 28.5285 20.909 28.5285 20.906L28.5494 13.6822C28.5504 13.4379 28.487 13.1977 28.3655 12.9858C28.244 12.7738 28.0687 12.5977 27.8574 12.4751C27.6461 12.3526 27.4062 12.2879 27.1619 12.2877C26.9176 12.2874 26.6776 12.3516 26.466 12.4738L18.5672 17.0256C18.3564 17.147 18.1174 17.2109 17.8741 17.2109C17.6309 17.2109 17.3919 17.147 17.1811 17.0256L9.25723 12.4631C9.04613 12.3415 8.80677 12.2776 8.56316 12.2777C8.31956 12.2779 8.08028 12.3421 7.86934 12.464C7.6584 12.5858 7.48322 12.761 7.36138 12.972C7.23955 13.1829 7.17534 13.4222 7.1752 13.6658V26.7217C7.17538 26.965 7.11162 27.2041 6.99032 27.4151C6.86901 27.626 6.6944 27.8014 6.48399 27.9236C6.27358 28.0459 6.03474 28.1107 5.7914 28.1116C5.54806 28.1125 5.30876 28.0494 5.09746 27.9287L0.700001 25.4142C0.487063 25.2926 0.310126 25.1168 0.187176 24.9046C0.0642251 24.6924 -0.000354508 24.4515 1.46369e-06 24.2062L0.039064 1.38592C0.039687 1.14272 0.104159 0.903951 0.226032 0.693491C0.347904 0.483031 0.522903 0.308263 0.733523 0.186668C0.944144 0.0650734 1.183 0.000915976 1.4262 0.000613663C1.6694 0.00031135 1.90842 0.0638748 2.11934 0.184945L17.1824 8.83612C17.3929 8.957 17.6314 9.02062 17.8741 9.02062C18.1169 9.02062 18.3553 8.957 18.5658 8.83612L33.6244 0.184555C33.8357 0.0631986 34.0751 -0.000448573 34.3188 2.37974e-06C34.5624 0.000453333 34.8017 0.0649865 35.0125 0.187124C35.2233 0.309261 35.3982 0.484705 35.5198 0.695844C35.6414 0.906982 35.7053 1.14639 35.7051 1.39002V24.2156C35.7052 24.4598 35.641 24.6997 35.5188 24.9111C35.3967 25.1225 35.221 25.298 35.0094 25.4199L27.123 29.9617C26.9112 30.0838 26.7353 30.2597 26.6133 30.4715C26.4912 30.6833 26.4272 30.9237 26.4277 31.1682C26.4283 31.4127 26.4934 31.6527 26.6164 31.864C26.7395 32.0753 26.9161 32.2503 27.1285 32.3715L31.4787 34.848C31.6889 34.9677 31.9268 35.0303 32.1687 35.0298C32.4105 35.0293 32.6481 34.9656 32.8578 34.8451L42.143 29.5131L42.1428 29.5133ZM43.0553 9.03768C43.0555 9.28332 43.1208 9.52452 43.2446 9.73668C43.3684 9.94884 43.5463 10.1244 43.76 10.2454C43.9738 10.3664 44.2159 10.4285 44.4615 10.4254C44.7071 10.4224 44.9475 10.3542 45.1582 10.2279L49.325 7.72791C49.5307 7.60467 49.701 7.43027 49.8192 7.22169C49.9375 7.01311 49.9998 6.77746 50 6.53768V1.44295C49.9996 1.19743 49.9341 0.9564 49.8102 0.744432C49.6863 0.532463 49.5084 0.35713 49.2946 0.236297C49.0809 0.115464 48.839 0.0534511 48.5935 0.056576C48.348 0.0597008 48.1077 0.127852 47.8971 0.254086L43.7305 2.75409C43.5247 2.87733 43.3544 3.05175 43.2361 3.26036C43.1177 3.46898 43.0555 3.70468 43.0553 3.94452V9.03905V9.03768Z" fill="#FE7F2D"/>
</svg>
