<svg width="50" height="50" viewBox="0 0 50 50" fill="none" xmlns="http://www.w3.org/2000/svg">
<path d="M38.2812 0H11.7188C5.24666 0 0 5.24666 0 11.7188V38.2812C0 44.7533 5.24666 50 11.7188 50H38.2812C44.7533 50 50 44.7533 50 38.2812V11.7188C50 5.24666 44.7533 0 38.2812 0Z" fill="#FE7F2D"/>
<mask id="path-2-inside-1_1602_27" fill="white">
<path d="M33.4322 21.0139C31.3742 11.9355 27.0851 9.51875 25.991 7.81035C25.5398 7.05775 25.1401 6.27542 24.7947 5.46875C24.7369 6.27539 24.6306 6.7832 23.9451 7.39492C22.5687 8.62207 16.723 13.3857 16.231 23.7008C15.7726 33.3184 23.3013 39.2486 24.2959 39.8617C25.0607 40.2381 25.9922 39.8697 26.4467 39.5242C30.0758 37.0336 35.0343 30.3934 33.4361 21.0139"/>
</mask>
<path d="M33.4322 21.0139C31.3742 11.9355 27.0851 9.51875 25.991 7.81035C25.5398 7.05775 25.1401 6.27542 24.7947 5.46875C24.7369 6.27539 24.6306 6.7832 23.9451 7.39492C22.5687 8.62207 16.723 13.3857 16.231 23.7008C15.7726 33.3184 23.3013 39.2486 24.2959 39.8617C25.0607 40.2381 25.9922 39.8697 26.4467 39.5242C30.0758 37.0336 35.0343 30.3934 33.4361 21.0139" fill="#31313A"/>
<path d="M25.991 7.81035L25.8194 7.91324L25.8226 7.91822L25.991 7.81035ZM24.7947 5.46875L24.9786 5.39003L24.5952 5.45445L24.7947 5.46875ZM23.9451 7.39492L24.0782 7.5442L24.0782 7.54415L23.9451 7.39492ZM16.231 23.7008L16.0313 23.6913L16.0313 23.6913L16.231 23.7008ZM24.2959 39.8617L24.1909 40.032L24.199 40.037L24.2076 40.0412L24.2959 39.8617ZM26.4467 39.5242L26.3333 39.3591L26.3256 39.365L26.4467 39.5242ZM33.6272 20.9697C32.592 16.4029 30.9932 13.5033 29.5101 11.5283C28.7694 10.542 28.0595 9.78891 27.4697 9.17852C26.8727 8.56067 26.4192 8.10809 26.1594 7.70249L25.8226 7.91822C26.1099 8.36681 26.6028 8.85698 27.182 9.45647C27.7685 10.0634 28.4646 10.8023 29.1902 11.7685C30.6396 13.6985 32.2144 16.5465 33.2371 21.0581L33.6272 20.9697ZM26.1625 7.70751C25.7159 6.96266 25.3204 6.18839 24.9786 5.39003L24.6108 5.54747C24.9598 6.36245 25.3636 7.15284 25.8195 7.91319L26.1625 7.70751ZM24.5952 5.45445C24.5665 5.8553 24.5267 6.15781 24.4191 6.43182C24.3135 6.70093 24.1366 6.95597 23.8119 7.24569L24.0782 7.54415C24.4391 7.22215 24.6582 6.91743 24.7915 6.57804C24.9228 6.24356 24.9651 5.88884 24.9942 5.48305L24.5952 5.45445ZM23.812 7.24564C22.4269 8.48054 16.5273 13.2916 16.0313 23.6913L16.4308 23.7103C16.9188 13.4799 22.7105 8.7636 24.0782 7.5442L23.812 7.24564ZM16.0313 23.6913C15.7994 28.5568 17.5884 32.4869 19.5552 35.2733C21.5195 38.0561 23.67 39.7108 24.1909 40.032L24.4008 39.6915C23.9272 39.3995 21.8161 37.7826 19.882 35.0426C17.9504 32.3062 16.2043 28.4624 16.4308 23.7103L16.0313 23.6913ZM24.2076 40.0412C24.6434 40.2556 25.1176 40.2536 25.5323 40.1586C25.9465 40.0638 26.3188 39.8726 26.5677 39.6834L26.3256 39.365C26.12 39.5213 25.7994 39.6871 25.443 39.7687C25.0872 39.8502 24.7132 39.8442 24.3842 39.6823L24.2076 40.0412ZM26.5598 39.6891C30.2416 37.1624 35.2468 30.4497 33.6333 20.9803L33.2389 21.0475C34.8219 30.337 29.9099 36.9048 26.3335 39.3593L26.5598 39.6891Z" fill="#FE7F2D" mask="url(#path-2-inside-1_1602_27)"/>
<path d="M24.4024 39.8748C24.7755 38.8115 24.9406 37.7321 25.084 36.1927C25.1355 36.7429 25.2144 37.271 25.3291 37.7424C25.436 38.1814 25.5749 38.5751 25.7542 38.8929C25.918 39.1831 26.1186 39.4152 26.3644 39.5575C25.9957 41.1651 25.7182 42.7923 25.5333 44.4312H24.9289C24.8195 43.2617 24.689 42.1308 24.5849 41.2854C24.5316 40.8517 24.4851 40.4931 24.452 40.2429C24.4354 40.1178 24.4222 40.0198 24.4131 39.953L24.4027 39.8768L24.4024 39.8748Z" fill="#31313A" stroke="#FE7F2D" stroke-width="0.2"/>
<path d="M25.0813 6.33721C25.3316 6.85774 25.6066 7.36616 25.9055 7.86069L25.9054 7.86071L25.9068 7.86287C26.1579 8.25526 26.5716 8.68198 27.0745 9.20078C27.1332 9.26136 27.1931 9.3232 27.2542 9.38639C27.8416 9.99439 28.5413 10.7369 29.2707 11.7083C30.7285 13.6494 32.3089 16.5095 33.3341 21.0334C34.9201 30.3088 30.0633 36.8769 26.4691 39.3909C26.2596 39.2782 26.0785 39.0788 25.9239 38.804C25.7571 38.5076 25.625 38.1304 25.522 37.6987C25.3164 36.8367 25.2309 35.7738 25.2079 34.743C25.4618 31.3265 25.5358 27.8989 25.4297 24.4746L25.3297 24.4777L25.4297 24.4747C25.4167 24.0436 25.4115 22.8598 25.4045 21.279C25.3969 19.5715 25.3873 17.4009 25.3637 15.2155C25.341 13.1127 25.3054 10.9974 25.2462 9.27174C25.2045 8.058 25.1511 7.03127 25.0813 6.33721Z" fill="#31313A" stroke="#FE7F2D" stroke-width="0.2"/>
</svg>
