<svg width="50" height="50" viewBox="0 0 50 50" fill="none" xmlns="http://www.w3.org/2000/svg">
<path d="M38.2812 0H11.7188C5.24666 0 0 5.24666 0 11.7188V38.2812C0 44.7533 5.24666 50 11.7188 50H38.2812C44.7533 50 50 44.7533 50 38.2812V11.7188C50 5.24666 44.7533 0 38.2812 0Z" fill="#FE7F2D"/>
<mask id="mask0_1602_13" style="mask-type:luminance" maskUnits="userSpaceOnUse" x="7" y="7" width="36" height="36">
<path d="M7.42188 7.42188H42.5781V42.5781H7.42188V7.42188Z" fill="white"/>
</mask>
<g mask="url(#mask0_1602_13)">
<path fill-rule="evenodd" clip-rule="evenodd" d="M39.8049 34.8067C37.8928 34.7535 36.4094 34.9494 35.1662 35.4725C34.8082 35.6162 34.2338 35.6162 34.1865 36.0668C34.378 36.2559 34.401 36.5652 34.5688 36.8274C34.8553 37.3029 35.358 37.9436 35.8119 38.276L37.342 39.3693C38.2744 39.9391 39.3264 40.2721 40.2348 40.8424C40.761 41.1752 41.2867 41.6029 41.8129 41.9598C42.0809 42.1498 42.2432 42.4594 42.5781 42.5775V42.5057C42.411 42.2926 42.3627 41.9838 42.1961 41.7451L41.478 41.0565C40.7852 40.1299 39.9239 39.3213 38.9914 38.6567C38.2262 38.1338 36.5531 37.4211 36.2422 36.5424L36.1951 36.4891C36.7203 36.436 37.342 36.251 37.8446 36.1084C38.658 35.8953 39.3987 35.9422 40.2348 35.7285L41.3832 35.3957V35.1826C40.9528 34.7551 40.642 34.1846 40.1881 33.7811C38.969 32.7356 37.6291 31.7135 36.2422 30.8582C35.5012 30.3832 34.5446 30.0736 33.7557 29.6705C33.468 29.5277 32.9905 29.4565 32.8233 29.219C32.3918 28.6971 32.1533 28.0072 31.8426 27.3891L29.8822 23.2547C29.452 22.3279 29.1883 21.4012 28.6631 20.5459C26.2 16.5063 23.5217 14.0592 19.4092 11.6588C18.525 11.1598 17.4731 10.9451 16.3545 10.6842L14.5615 10.5885C14.1783 10.4223 13.7961 9.97052 13.4613 9.75646C12.0985 8.90099 8.58362 7.04786 7.57854 9.49025C6.93303 11.0346 8.53537 12.5551 9.07932 13.3397C9.48655 13.8861 10.0117 14.5037 10.2994 15.1217C10.4602 15.5254 10.5139 15.9535 10.6817 16.3813C11.0637 17.4266 11.4227 18.5914 11.9248 19.566C12.1928 20.0651 12.4742 20.5885 12.809 21.0397C13.0004 21.3059 13.3354 21.4199 13.4067 21.8475C13.0717 22.3231 13.0487 23.0352 12.8572 23.6301C11.9961 26.3152 12.3311 29.6418 13.5502 31.6188C13.9334 32.2125 14.8364 33.5199 16.0615 33.0205C17.1375 32.5928 16.8975 31.2385 17.2082 30.0502C17.2805 29.7654 17.2324 29.5752 17.3754 29.3846V29.4379L18.3561 31.41C19.0973 32.5742 20.3889 33.7863 21.4643 34.5947C22.0377 35.0225 22.4922 35.7596 23.2092 36.0205V35.9486H23.1621C23.0184 35.7356 22.803 35.6397 22.6117 35.4734C22.1815 35.0459 21.7033 34.5229 21.3684 34.0479C20.3647 32.7174 19.4805 31.2438 18.691 29.7233C18.308 28.9867 17.9731 28.1787 17.6633 27.4422C17.5186 27.1568 17.5186 26.7285 17.2801 26.5869C16.9209 27.1088 16.3959 27.5615 16.1317 28.2027C15.6772 29.2242 15.6301 30.4838 15.4629 31.7908C15.3664 31.8147 15.4092 31.7908 15.3664 31.844C14.6022 31.6545 14.3385 30.8693 14.052 30.2047C13.3348 28.5176 13.2147 25.8088 13.8364 23.8602C14.0035 23.3611 14.7217 21.7928 14.435 21.3176C14.2905 20.866 13.8133 20.6051 13.5496 20.2483C13.2389 19.7967 12.9051 19.2268 12.6897 18.7277C12.1162 17.3963 11.8295 15.9236 11.2072 14.593C10.9196 13.975 10.418 13.3332 10.0112 12.7635C9.55666 12.1217 9.05569 11.6699 8.6967 10.91C8.57717 10.6438 8.40998 10.2209 8.60119 9.93536C8.64846 9.74532 8.74475 9.66915 8.93518 9.62657C9.24573 9.36017 10.1313 9.69786 10.442 9.83946C11.3262 10.1963 12.0674 10.5287 12.8086 11.0272C13.1436 11.2647 13.5026 11.7164 13.9328 11.8358H14.4356C15.2008 12.0018 16.061 11.8889 16.7774 12.102C18.0449 12.5067 19.1922 13.1 20.2211 13.7422C23.353 15.7145 25.936 18.5184 27.6807 21.8693C27.9674 22.4158 28.0869 22.9149 28.3506 23.4852C28.8533 24.65 29.475 25.8377 29.976 26.9789C30.4787 28.0957 30.9567 29.2371 31.6739 30.1637C32.0328 30.6627 33.4668 30.9236 34.1121 31.1852C34.5906 31.3983 35.3313 31.59 35.7627 31.851C36.575 32.35 37.3881 32.9203 38.1528 33.4668C38.5348 33.7512 39.7311 34.3455 39.8022 34.8195L39.8049 34.8067ZM15.4215 14.1576C15.0913 14.1547 14.762 14.1946 14.442 14.2764V14.3297H14.4891C14.6805 14.71 15.0155 14.9715 15.2543 15.3043L15.8047 16.4449L15.852 16.3918C16.1867 16.1543 16.3545 15.774 16.3545 15.2043C16.211 15.0381 16.1873 14.8713 16.0678 14.7051C15.9242 14.4676 15.6135 14.3483 15.4215 14.1588V14.1576Z" fill="#31313A"/>
</g>
</svg>
