<svg width="50" height="25" viewBox="0 0 50 25" fill="none" xmlns="http://www.w3.org/2000/svg" >
<path d="M0 22.5053C0 23.6446 1.115 24.5664 2.4875 24.5664H22.5125C23.1722 24.5664 23.8049 24.3493 24.2714 23.9627C24.7379 23.5762 25 23.052 25 22.5053C25 21.9587 24.7379 21.4345 24.2714 21.0479C23.8049 20.6614 23.1722 20.4443 22.5125 20.4443H2.4875C1.1125 20.4443 0 21.3661 0 22.5053V22.5053Z" fill="black"/>
<path d="M0 12.3832C0 13.5225 1.115 14.4443 2.4875 14.4443H47.5125C48.1722 14.4443 48.8049 14.2271 49.2714 13.8406C49.7379 13.4541 50 12.9298 50 12.3832C50 11.8366 49.7379 11.3123 49.2714 10.9258C48.8049 10.5393 48.1722 10.3221 47.5125 10.3221H2.4875C1.1125 10.3221 0 11.246 0 12.3832V12.3832Z" fill="black"/>
<path d="M2.48775 4.32215C1.82802 4.32215 1.19531 4.105 0.728818 3.71848C0.262321 3.33195 0.000244141 2.80771 0.000244141 2.26108C0.000244141 1.71445 0.262321 1.19021 0.728818 0.803685C1.19531 0.41716 1.82802 0.200012 2.48775 0.200012H32.5127C32.8394 0.200012 33.1629 0.253323 33.4647 0.356902C33.7665 0.46048 34.0407 0.612297 34.2717 0.803685C34.5027 0.995073 34.6859 1.22228 34.8109 1.47235C34.9359 1.72241 35.0002 1.99042 35.0002 2.26108C35.0002 2.53175 34.9359 2.79976 34.8109 3.04982C34.6859 3.29988 34.5027 3.52709 34.2717 3.71848C34.0407 3.90987 33.7665 4.06168 33.4647 4.16526C33.1629 4.26884 32.8394 4.32215 32.5127 4.32215H2.48775Z" fill="black"/>
</svg>
