<svg width="51" height="50" viewBox="0 0 51 50" fill="none" xmlns="http://www.w3.org/2000/svg">
<mask id="path-1-inside-1_1602_7" fill="white">
<path d="M29.5554 0C29.1936 0 28.8569 0.0773864 28.5452 0.181963C29.2061 0.621183 29.5701 1.20681 29.7499 1.86773C29.7646 1.95767 29.7897 2.0225 29.8022 2.11244C29.8177 2.18964 29.8268 2.26799 29.8294 2.34669C29.8796 3.48657 29.5303 3.63089 29.2856 4.30436C28.9091 5.17234 29.0137 6.10516 29.4655 6.85602C29.5069 6.95671 29.5587 7.05275 29.6203 7.14256C29.1288 3.86305 31.8645 3.37154 32.3685 2.34669C32.4083 1.45152 31.67 0.855434 31.0864 0.441312C30.6278 0.15316 30.097 0.000869534 29.5554 0.00209153V0ZM33.6778 0.738308C33.6276 1.0374 33.6653 0.96001 33.6527 1.11478C33.6402 1.21936 33.6402 1.34903 33.6276 1.45152C33.6004 1.55609 33.5753 1.66067 33.5356 1.76316C33.5105 1.86773 33.4728 1.97231 33.431 2.07479L33.2909 2.37179C33.2491 2.42408 33.226 2.47637 33.1863 2.52865L33.1089 2.64369C33.0472 2.73245 32.9823 2.81895 32.9144 2.90304C32.837 2.98251 32.7722 3.07245 32.6802 3.13729V3.14984C32.6028 3.21467 32.5254 3.29206 32.4334 3.35899C32.1615 3.56605 31.8519 3.72082 31.5654 3.91534C31.4754 3.97808 31.3834 4.03246 31.306 4.10985C31.218 4.17174 31.1355 4.24101 31.0592 4.31691C30.9693 4.39429 30.9045 4.47168 30.8271 4.56371C30.7622 4.6411 30.6848 4.73103 30.6326 4.82306C30.5675 4.91063 30.5067 5.00138 30.4506 5.09496C30.3983 5.19953 30.3607 5.28947 30.3084 5.39195C30.2686 5.49653 30.231 5.58646 30.2038 5.69104C30.1695 5.79786 30.1395 5.90601 30.1139 6.01523C30.1013 6.06752 30.1013 6.13235 30.0888 6.18255C30.0741 6.23484 30.0741 6.28713 30.0616 6.33941C30.0616 6.44399 30.049 6.55902 30.049 6.6636C30.049 6.74099 30.049 6.81837 30.0616 6.89576C30.0616 7.00034 30.0741 7.10491 30.1013 7.21995C30.1139 7.32452 30.139 7.4291 30.1641 7.53367C30.2059 7.63616 30.231 7.73864 30.2686 7.84322C30.2958 7.90597 30.3335 7.97289 30.3607 8.02518L27.3781 6.87066C26.8741 6.72844 26.3805 6.59876 25.8743 6.48164L25.0586 6.28713C24.2806 6.13235 23.49 6.01523 22.6994 5.93784C22.6722 5.93784 22.6597 5.92529 22.6346 5.92529C21.2986 5.79147 19.9536 5.77397 18.6147 5.873C17.8241 5.92529 17.0335 6.02778 16.2429 6.15745C15.6553 6.25868 15.0715 6.38006 14.4923 6.52138L13.9087 6.67615C13.7163 6.75354 13.5322 6.84347 13.3524 6.92295L12.9236 7.11746C12.8985 7.13001 12.8734 7.13001 12.8609 7.14256C12.7291 7.2074 12.6141 7.25968 12.4969 7.32452C12.3285 7.39881 12.1638 7.48117 12.0033 7.57132C11.9134 7.60897 11.8235 7.66126 11.744 7.701C11.7069 7.72405 11.6684 7.74499 11.629 7.76374C11.5118 7.83067 11.3947 7.89551 11.2901 7.96035C11.1834 8.01935 11.0801 8.08429 10.9806 8.15486C10.8886 8.2176 10.7986 8.26989 10.7212 8.33473C10.7087 8.34937 10.694 8.34937 10.6815 8.36192C10.6041 8.41421 10.5142 8.47904 10.4347 8.54388L10.4096 8.56898L10.2151 8.72375C10.19 8.73839 10.1628 8.76349 10.1377 8.77604C10.0729 8.82833 10.008 8.89317 9.94319 8.94336C9.93064 8.97055 9.90345 8.98519 9.8909 8.99565C9.81351 9.07513 9.73613 9.13997 9.65874 9.21735C9.6441 9.21735 9.6441 9.2299 9.63155 9.24245C9.55095 9.3129 9.47348 9.38688 9.39939 9.46415C9.38475 9.4767 9.38475 9.48925 9.3722 9.48925C9.30413 9.55588 9.23922 9.62568 9.17769 9.6984C9.15259 9.7235 9.11494 9.7486 9.08775 9.7737C9.0183 9.85587 8.94428 9.93408 8.86605 10.0079C8.8535 10.033 8.82841 10.0477 8.81586 10.0707C8.71128 10.1753 8.62135 10.2798 8.51677 10.3844L8.47912 10.4221C8.26997 10.6438 8.05036 10.8634 7.81611 11.0579C7.58395 11.267 7.33715 11.4595 7.09035 11.6289C6.59482 11.9828 6.06002 12.2783 5.49661 12.5094C5.22471 12.6265 4.93817 12.7311 4.65372 12.8211C4.10993 12.9382 3.55149 13.1578 3.07253 13.1975C2.96795 13.1975 2.85292 13.2226 2.74834 13.2352L2.42416 13.3126L2.11252 13.4297C2.00794 13.4694 1.90546 13.5217 1.80297 13.5719C1.71095 13.6367 1.60846 13.689 1.51643 13.7539C1.42415 13.8207 1.33742 13.8948 1.25708 13.9756C1.16715 14.0383 1.07512 14.1303 0.997736 14.2077C0.920349 14.2977 0.842963 14.3751 0.778126 14.4671C0.713288 14.5717 0.635902 14.6616 0.583614 14.7662C0.515488 14.8604 0.454657 14.9597 0.401651 15.0632C0.349363 15.1803 0.297075 15.2849 0.259427 15.3999C0.219688 15.5045 0.182041 15.6216 0.142302 15.7366C0.117204 15.8412 0.0900138 15.9458 0.0795562 16.0504C0.0795562 16.0608 0.0649155 16.0755 0.0649155 16.088C0.0398172 16.2051 0.0398172 16.3599 0.0251765 16.4373C0.0126274 16.5293 7.8211e-05 16.6046 7.8211e-05 16.6966C-0.00232813 16.9222 0.0508267 17.1449 0.154851 17.345V17.3576C0.19459 17.435 0.246878 17.5144 0.299166 17.5918C0.349363 17.6692 0.403743 17.7466 0.466488 17.824C0.531326 17.8888 0.608712 17.9683 0.68819 18.0331C0.763765 18.1089 0.845627 18.1782 0.932899 18.2402C1.24454 18.5121 1.32192 18.602 1.7235 18.8091C1.78833 18.8488 1.85317 18.8739 1.93265 18.9137C1.9452 18.9137 1.95775 18.9262 1.97029 18.9262C1.97029 18.9534 1.9703 18.966 1.98284 18.991C2.01312 19.2048 2.06931 19.4141 2.15017 19.6143C2.192 19.6917 2.2171 19.7691 2.25474 19.8465C2.26938 19.8737 2.28193 19.8988 2.29657 19.9113C2.34677 20.0159 2.39906 20.1058 2.44925 20.1979L2.64377 20.4698C2.7086 20.5471 2.78808 20.6371 2.86547 20.7166C2.94285 20.7939 3.02024 20.8588 3.11227 20.9362C3.11227 20.9362 3.12482 20.9487 3.13737 20.9487C3.21475 21.0136 3.29214 21.0784 3.37162 21.1307C3.46181 21.194 3.55693 21.2499 3.65606 21.298C3.746 21.3503 3.85058 21.4026 3.95306 21.4423C4.03664 21.48 4.12344 21.5101 4.21241 21.5323C4.22705 21.5448 4.2396 21.5448 4.2647 21.5574C4.31699 21.572 4.38182 21.5845 4.43202 21.5971C4.39437 22.2978 4.38182 22.9566 4.4864 23.1908C4.60143 23.4502 5.17242 22.6596 5.74132 21.7519C5.66602 22.647 5.61373 23.697 5.74132 24.0086C5.88563 24.3328 6.66159 23.3205 7.33715 22.2057C16.5294 20.0807 24.9164 26.4306 25.797 35.4032C25.6296 34.0019 23.9041 33.226 23.1135 33.4205C22.7245 34.3784 22.0636 35.6103 21.0011 36.3758C21.091 35.5183 21.0534 34.6398 20.8714 33.7823C20.5811 34.976 20.032 36.0913 19.263 37.0493C18.0332 37.1392 16.8013 36.5431 16.1529 35.648C16.1006 35.6103 16.0881 35.5329 16.0484 35.4806C16.0107 35.3907 15.971 35.2987 15.9438 35.2087C15.9061 35.1219 15.8801 35.0305 15.8664 34.9368C15.8538 34.8448 15.8538 34.7549 15.8538 34.6503V34.4558C15.8693 34.3638 15.891 34.273 15.9187 34.1839C15.9459 34.094 15.971 34.004 16.0107 33.912C16.0609 33.8221 16.1006 33.73 16.1655 33.6401C16.3851 33.0168 16.3851 32.5107 15.9835 32.2137C15.9055 32.1628 15.8229 32.1193 15.7367 32.084C15.6865 32.0714 15.6217 32.0464 15.5694 32.0317L15.4648 31.9941C15.376 31.9653 15.2851 31.9436 15.1929 31.9292C15.1046 31.9034 15.0131 31.89 14.921 31.8895C14.8269 31.8747 14.7318 31.8663 14.6366 31.8644C14.5717 31.8644 14.5069 31.8769 14.4421 31.8769C14.3451 31.8764 14.2486 31.8898 14.1555 31.9167C14.0656 31.9292 13.9756 31.9418 13.8836 31.9669C13.7911 31.9917 13.7003 32.0224 13.6117 32.0589C13.5218 32.0965 13.4444 32.1363 13.3524 32.176C13.275 32.2137 13.1976 32.266 13.1056 32.3057C10.0854 34.2759 11.8883 38.8898 13.9485 40.2263C13.1704 40.3685 12.3798 40.5359 12.1602 40.7053L12.133 40.7304C12.6915 41.0671 13.275 41.3536 13.8836 41.6004C14.714 41.8723 15.5945 42.117 15.9835 42.2216V42.2342C17.0576 42.4547 18.1559 42.5335 19.2505 42.4684C24.9938 42.0668 29.6997 37.6977 30.5552 31.9418L30.6326 32.2785C30.6723 32.5128 30.7225 32.7596 30.7497 33.0043V33.0168C30.7748 33.1339 30.7873 33.2511 30.802 33.3556V33.4058C30.8145 33.523 30.8271 33.6401 30.8271 33.7447C30.8396 33.8869 30.8522 34.0291 30.8522 34.1713V34.3805C30.8522 34.4432 30.8668 34.5206 30.8668 34.5855C30.8668 34.6649 30.8522 34.7423 30.8522 34.8197V35.0017C30.8522 35.0916 30.8396 35.169 30.8396 35.261C30.8396 35.3133 30.8396 35.3656 30.8271 35.4283C30.8271 35.5204 30.8145 35.6103 30.8145 35.7149C30.802 35.7525 30.802 35.7923 30.802 35.8299L30.7601 36.129C30.7601 36.1687 30.7601 36.2064 30.7497 36.2461C30.735 36.3758 30.7099 36.4929 30.6974 36.6226V36.6477L30.62 37.0116V37.0493L30.5426 37.3986C30.5426 37.4132 30.528 37.4404 30.528 37.4508C30.5041 37.5695 30.4741 37.6867 30.438 37.8022V37.8399C30.3983 37.9695 30.3607 38.0867 30.3335 38.2038C30.3209 38.2163 30.3209 38.2289 30.3209 38.2289L30.2038 38.6179C30.1536 38.7476 30.1139 38.8647 30.0616 38.9944C30.0093 39.1241 29.9716 39.2537 29.9193 39.3709C29.8671 39.5005 29.8148 39.6156 29.7646 39.7473H29.7499C29.6997 39.8624 29.6454 39.9921 29.5826 40.1092C29.5717 40.1401 29.5584 40.1702 29.5429 40.1991C29.5303 40.2117 29.5303 40.2263 29.5178 40.2389C28.6604 41.9552 27.4125 43.4467 25.8743 44.5934C25.7698 44.6582 25.6673 44.7377 25.5627 44.8151C25.5376 44.8402 25.5 44.8528 25.4728 44.8779C25.3801 44.9464 25.2852 45.012 25.1883 45.0745L25.226 45.1518H25.2406L25.7844 45.0745H25.797C26.1337 45.0222 26.4704 44.9573 26.8072 44.8925C26.8992 44.8799 27.0017 44.8528 27.0937 44.8277L27.2757 44.7879C27.3656 44.7754 27.4555 44.7503 27.5476 44.7377C27.6249 44.7105 27.7023 44.6959 27.7797 44.6729C29.0765 44.3592 30.3335 43.9325 31.5403 43.4284C29.4568 46.2663 26.6858 48.5277 23.4879 50C24.9813 49.8954 26.4704 49.6507 27.9094 49.2345C33.1177 47.7032 37.5167 44.1883 40.1595 39.4462C39.6257 42.448 38.4351 45.2949 36.6729 47.783C37.9293 46.9542 39.0902 45.9891 40.1344 44.905C43.036 41.8757 44.941 38.0307 45.5932 33.8869C46.0325 35.9366 46.1621 38.049 45.9697 40.1343C55.3272 27.0811 46.7457 13.5468 43.1545 9.98285C43.142 9.95566 43.1294 9.94311 43.1294 9.91801C43.1169 9.93056 43.1169 9.93056 43.1169 9.94311C43.1169 9.93056 43.1169 9.93056 43.1022 9.91801C43.1022 10.0728 43.0897 10.2276 43.0771 10.3844C43.0412 10.6748 42.998 10.9642 42.9475 11.2524C42.8847 11.5369 42.8052 11.8234 42.7279 12.1099C42.6358 12.3818 42.5333 12.6663 42.4141 12.9382C42.2956 13.2067 42.1665 13.4704 42.0272 13.7288C41.7378 14.2369 41.4039 14.7185 41.0295 15.1677C40.835 15.3999 40.628 15.607 40.4188 15.8161C40.2966 15.9279 40.171 16.036 40.0423 16.1403L39.7453 16.3997C39.5139 16.5823 39.2715 16.7506 39.0196 16.9037C38.7718 17.0633 38.5163 17.2106 38.2541 17.345C37.9822 17.4747 37.7103 17.5918 37.4384 17.7089C36.8846 17.9196 36.3116 18.0758 35.7275 18.1754C35.4284 18.2276 35.1314 18.2527 34.8449 18.2799C34.6381 18.2946 34.431 18.3029 34.2237 18.305C33.9289 18.301 33.6343 18.2835 33.3411 18.2527C33.045 18.2295 32.7508 18.1862 32.4606 18.1231C32.1666 18.0697 31.8766 17.9963 31.5926 17.9035H31.5779C31.8645 17.8763 32.1489 17.8512 32.4355 17.7989C33.0192 17.6977 33.592 17.5415 34.1463 17.3325C34.4308 17.2279 34.7027 17.0982 34.962 16.9685C35.2339 16.8389 35.4807 16.6966 35.7401 16.5419C35.9869 16.3746 36.2316 16.2051 36.4658 16.0232C36.7001 15.8412 36.9197 15.6467 37.1267 15.4396C37.3464 15.2451 37.5409 15.0255 37.7354 14.8038C37.9299 14.5717 38.1119 14.3374 38.2792 14.1052C38.3064 14.0655 38.3336 14.0132 38.3587 13.9756C38.4883 13.7664 38.618 13.5594 38.7351 13.3523C39.0209 12.8364 39.2549 12.2934 39.4337 11.7314C39.5257 11.4595 39.5906 11.175 39.6554 10.8885C39.7077 10.5915 39.76 10.307 39.7851 10.0205C39.8102 9.7235 39.8374 9.42441 39.8374 9.13997C39.8374 8.93081 39.8227 8.72375 39.8102 8.51669C39.7843 8.22635 39.7494 7.93688 39.7056 7.64871C39.6552 7.35651 39.591 7.06686 39.5132 6.78073C39.4211 6.50883 39.3312 6.22229 39.2266 5.95039C39.1221 5.67849 38.9945 5.40659 38.8648 5.14724C38.7205 4.88789 38.5783 4.62855 38.4235 4.38175C38.2579 4.13944 38.0849 3.90229 37.9048 3.67063C37.7103 3.44893 37.5158 3.22722 37.3087 3.00761C37.1996 2.89634 37.0873 2.78823 36.972 2.68343C36.3863 2.22957 35.7798 1.80289 35.1691 1.41387C35.0853 1.36549 34.9987 1.32218 34.9097 1.2842C34.5252 1.04876 34.1109 0.863779 33.6778 0.738308Z"/>
</mask>
<path d="M29.5554 0C29.1936 0 28.8569 0.0773864 28.5452 0.181963C29.2061 0.621183 29.5701 1.20681 29.7499 1.86773C29.7646 1.95767 29.7897 2.0225 29.8022 2.11244C29.8177 2.18964 29.8268 2.26799 29.8294 2.34669C29.8796 3.48657 29.5303 3.63089 29.2856 4.30436C28.9091 5.17234 29.0137 6.10516 29.4655 6.85602C29.5069 6.95671 29.5587 7.05275 29.6203 7.14256C29.1288 3.86305 31.8645 3.37154 32.3685 2.34669C32.4083 1.45152 31.67 0.855434 31.0864 0.441312C30.6278 0.15316 30.097 0.000869534 29.5554 0.00209153V0ZM33.6778 0.738308C33.6276 1.0374 33.6653 0.96001 33.6527 1.11478C33.6402 1.21936 33.6402 1.34903 33.6276 1.45152C33.6004 1.55609 33.5753 1.66067 33.5356 1.76316C33.5105 1.86773 33.4728 1.97231 33.431 2.07479L33.2909 2.37179C33.2491 2.42408 33.226 2.47637 33.1863 2.52865L33.1089 2.64369C33.0472 2.73245 32.9823 2.81895 32.9144 2.90304C32.837 2.98251 32.7722 3.07245 32.6802 3.13729V3.14984C32.6028 3.21467 32.5254 3.29206 32.4334 3.35899C32.1615 3.56605 31.8519 3.72082 31.5654 3.91534C31.4754 3.97808 31.3834 4.03246 31.306 4.10985C31.218 4.17174 31.1355 4.24101 31.0592 4.31691C30.9693 4.39429 30.9045 4.47168 30.8271 4.56371C30.7622 4.6411 30.6848 4.73103 30.6326 4.82306C30.5675 4.91063 30.5067 5.00138 30.4506 5.09496C30.3983 5.19953 30.3607 5.28947 30.3084 5.39195C30.2686 5.49653 30.231 5.58646 30.2038 5.69104C30.1695 5.79786 30.1395 5.90601 30.1139 6.01523C30.1013 6.06752 30.1013 6.13235 30.0888 6.18255C30.0741 6.23484 30.0741 6.28713 30.0616 6.33941C30.0616 6.44399 30.049 6.55902 30.049 6.6636C30.049 6.74099 30.049 6.81837 30.0616 6.89576C30.0616 7.00034 30.0741 7.10491 30.1013 7.21995C30.1139 7.32452 30.139 7.4291 30.1641 7.53367C30.2059 7.63616 30.231 7.73864 30.2686 7.84322C30.2958 7.90597 30.3335 7.97289 30.3607 8.02518L27.3781 6.87066C26.8741 6.72844 26.3805 6.59876 25.8743 6.48164L25.0586 6.28713C24.2806 6.13235 23.49 6.01523 22.6994 5.93784C22.6722 5.93784 22.6597 5.92529 22.6346 5.92529C21.2986 5.79147 19.9536 5.77397 18.6147 5.873C17.8241 5.92529 17.0335 6.02778 16.2429 6.15745C15.6553 6.25868 15.0715 6.38006 14.4923 6.52138L13.9087 6.67615C13.7163 6.75354 13.5322 6.84347 13.3524 6.92295L12.9236 7.11746C12.8985 7.13001 12.8734 7.13001 12.8609 7.14256C12.7291 7.2074 12.6141 7.25968 12.4969 7.32452C12.3285 7.39881 12.1638 7.48117 12.0033 7.57132C11.9134 7.60897 11.8235 7.66126 11.744 7.701C11.7069 7.72405 11.6684 7.74499 11.629 7.76374C11.5118 7.83067 11.3947 7.89551 11.2901 7.96035C11.1834 8.01935 11.0801 8.08429 10.9806 8.15486C10.8886 8.2176 10.7986 8.26989 10.7212 8.33473C10.7087 8.34937 10.694 8.34937 10.6815 8.36192C10.6041 8.41421 10.5142 8.47904 10.4347 8.54388L10.4096 8.56898L10.2151 8.72375C10.19 8.73839 10.1628 8.76349 10.1377 8.77604C10.0729 8.82833 10.008 8.89317 9.94319 8.94336C9.93064 8.97055 9.90345 8.98519 9.8909 8.99565C9.81351 9.07513 9.73613 9.13997 9.65874 9.21735C9.6441 9.21735 9.6441 9.2299 9.63155 9.24245C9.55095 9.3129 9.47348 9.38688 9.39939 9.46415C9.38475 9.4767 9.38475 9.48925 9.3722 9.48925C9.30413 9.55588 9.23922 9.62568 9.17769 9.6984C9.15259 9.7235 9.11494 9.7486 9.08775 9.7737C9.0183 9.85587 8.94428 9.93408 8.86605 10.0079C8.8535 10.033 8.82841 10.0477 8.81586 10.0707C8.71128 10.1753 8.62135 10.2798 8.51677 10.3844L8.47912 10.4221C8.26997 10.6438 8.05036 10.8634 7.81611 11.0579C7.58395 11.267 7.33715 11.4595 7.09035 11.6289C6.59482 11.9828 6.06002 12.2783 5.49661 12.5094C5.22471 12.6265 4.93817 12.7311 4.65372 12.8211C4.10993 12.9382 3.55149 13.1578 3.07253 13.1975C2.96795 13.1975 2.85292 13.2226 2.74834 13.2352L2.42416 13.3126L2.11252 13.4297C2.00794 13.4694 1.90546 13.5217 1.80297 13.5719C1.71095 13.6367 1.60846 13.689 1.51643 13.7539C1.42415 13.8207 1.33742 13.8948 1.25708 13.9756C1.16715 14.0383 1.07512 14.1303 0.997736 14.2077C0.920349 14.2977 0.842963 14.3751 0.778126 14.4671C0.713288 14.5717 0.635902 14.6616 0.583614 14.7662C0.515488 14.8604 0.454657 14.9597 0.401651 15.0632C0.349363 15.1803 0.297075 15.2849 0.259427 15.3999C0.219688 15.5045 0.182041 15.6216 0.142302 15.7366C0.117204 15.8412 0.0900138 15.9458 0.0795562 16.0504C0.0795562 16.0608 0.0649155 16.0755 0.0649155 16.088C0.0398172 16.2051 0.0398172 16.3599 0.0251765 16.4373C0.0126274 16.5293 7.8211e-05 16.6046 7.8211e-05 16.6966C-0.00232813 16.9222 0.0508267 17.1449 0.154851 17.345V17.3576C0.19459 17.435 0.246878 17.5144 0.299166 17.5918C0.349363 17.6692 0.403743 17.7466 0.466488 17.824C0.531326 17.8888 0.608712 17.9683 0.68819 18.0331C0.763765 18.1089 0.845627 18.1782 0.932899 18.2402C1.24454 18.5121 1.32192 18.602 1.7235 18.8091C1.78833 18.8488 1.85317 18.8739 1.93265 18.9137C1.9452 18.9137 1.95775 18.9262 1.97029 18.9262C1.97029 18.9534 1.9703 18.966 1.98284 18.991C2.01312 19.2048 2.06931 19.4141 2.15017 19.6143C2.192 19.6917 2.2171 19.7691 2.25474 19.8465C2.26938 19.8737 2.28193 19.8988 2.29657 19.9113C2.34677 20.0159 2.39906 20.1058 2.44925 20.1979L2.64377 20.4698C2.7086 20.5471 2.78808 20.6371 2.86547 20.7166C2.94285 20.7939 3.02024 20.8588 3.11227 20.9362C3.11227 20.9362 3.12482 20.9487 3.13737 20.9487C3.21475 21.0136 3.29214 21.0784 3.37162 21.1307C3.46181 21.194 3.55693 21.2499 3.65606 21.298C3.746 21.3503 3.85058 21.4026 3.95306 21.4423C4.03664 21.48 4.12344 21.5101 4.21241 21.5323C4.22705 21.5448 4.2396 21.5448 4.2647 21.5574C4.31699 21.572 4.38182 21.5845 4.43202 21.5971C4.39437 22.2978 4.38182 22.9566 4.4864 23.1908C4.60143 23.4502 5.17242 22.6596 5.74132 21.7519C5.66602 22.647 5.61373 23.697 5.74132 24.0086C5.88563 24.3328 6.66159 23.3205 7.33715 22.2057C16.5294 20.0807 24.9164 26.4306 25.797 35.4032C25.6296 34.0019 23.9041 33.226 23.1135 33.4205C22.7245 34.3784 22.0636 35.6103 21.0011 36.3758C21.091 35.5183 21.0534 34.6398 20.8714 33.7823C20.5811 34.976 20.032 36.0913 19.263 37.0493C18.0332 37.1392 16.8013 36.5431 16.1529 35.648C16.1006 35.6103 16.0881 35.5329 16.0484 35.4806C16.0107 35.3907 15.971 35.2987 15.9438 35.2087C15.9061 35.1219 15.8801 35.0305 15.8664 34.9368C15.8538 34.8448 15.8538 34.7549 15.8538 34.6503V34.4558C15.8693 34.3638 15.891 34.273 15.9187 34.1839C15.9459 34.094 15.971 34.004 16.0107 33.912C16.0609 33.8221 16.1006 33.73 16.1655 33.6401C16.3851 33.0168 16.3851 32.5107 15.9835 32.2137C15.9055 32.1628 15.8229 32.1193 15.7367 32.084C15.6865 32.0714 15.6217 32.0464 15.5694 32.0317L15.4648 31.9941C15.376 31.9653 15.2851 31.9436 15.1929 31.9292C15.1046 31.9034 15.0131 31.89 14.921 31.8895C14.8269 31.8747 14.7318 31.8663 14.6366 31.8644C14.5717 31.8644 14.5069 31.8769 14.4421 31.8769C14.3451 31.8764 14.2486 31.8898 14.1555 31.9167C14.0656 31.9292 13.9756 31.9418 13.8836 31.9669C13.7911 31.9917 13.7003 32.0224 13.6117 32.0589C13.5218 32.0965 13.4444 32.1363 13.3524 32.176C13.275 32.2137 13.1976 32.266 13.1056 32.3057C10.0854 34.2759 11.8883 38.8898 13.9485 40.2263C13.1704 40.3685 12.3798 40.5359 12.1602 40.7053L12.133 40.7304C12.6915 41.0671 13.275 41.3536 13.8836 41.6004C14.714 41.8723 15.5945 42.117 15.9835 42.2216V42.2342C17.0576 42.4547 18.1559 42.5335 19.2505 42.4684C24.9938 42.0668 29.6997 37.6977 30.5552 31.9418L30.6326 32.2785C30.6723 32.5128 30.7225 32.7596 30.7497 33.0043V33.0168C30.7748 33.1339 30.7873 33.2511 30.802 33.3556V33.4058C30.8145 33.523 30.8271 33.6401 30.8271 33.7447C30.8396 33.8869 30.8522 34.0291 30.8522 34.1713V34.3805C30.8522 34.4432 30.8668 34.5206 30.8668 34.5855C30.8668 34.6649 30.8522 34.7423 30.8522 34.8197V35.0017C30.8522 35.0916 30.8396 35.169 30.8396 35.261C30.8396 35.3133 30.8396 35.3656 30.8271 35.4283C30.8271 35.5204 30.8145 35.6103 30.8145 35.7149C30.802 35.7525 30.802 35.7923 30.802 35.8299L30.7601 36.129C30.7601 36.1687 30.7601 36.2064 30.7497 36.2461C30.735 36.3758 30.7099 36.4929 30.6974 36.6226V36.6477L30.62 37.0116V37.0493L30.5426 37.3986C30.5426 37.4132 30.528 37.4404 30.528 37.4508C30.5041 37.5695 30.4741 37.6867 30.438 37.8022V37.8399C30.3983 37.9695 30.3607 38.0867 30.3335 38.2038C30.3209 38.2163 30.3209 38.2289 30.3209 38.2289L30.2038 38.6179C30.1536 38.7476 30.1139 38.8647 30.0616 38.9944C30.0093 39.1241 29.9716 39.2537 29.9193 39.3709C29.8671 39.5005 29.8148 39.6156 29.7646 39.7473H29.7499C29.6997 39.8624 29.6454 39.9921 29.5826 40.1092C29.5717 40.1401 29.5584 40.1702 29.5429 40.1991C29.5303 40.2117 29.5303 40.2263 29.5178 40.2389C28.6604 41.9552 27.4125 43.4467 25.8743 44.5934C25.7698 44.6582 25.6673 44.7377 25.5627 44.8151C25.5376 44.8402 25.5 44.8528 25.4728 44.8779C25.3801 44.9464 25.2852 45.012 25.1883 45.0745L25.226 45.1518H25.2406L25.7844 45.0745H25.797C26.1337 45.0222 26.4704 44.9573 26.8072 44.8925C26.8992 44.8799 27.0017 44.8528 27.0937 44.8277L27.2757 44.7879C27.3656 44.7754 27.4555 44.7503 27.5476 44.7377C27.6249 44.7105 27.7023 44.6959 27.7797 44.6729C29.0765 44.3592 30.3335 43.9325 31.5403 43.4284C29.4568 46.2663 26.6858 48.5277 23.4879 50C24.9813 49.8954 26.4704 49.6507 27.9094 49.2345C33.1177 47.7032 37.5167 44.1883 40.1595 39.4462C39.6257 42.448 38.4351 45.2949 36.6729 47.783C37.9293 46.9542 39.0902 45.9891 40.1344 44.905C43.036 41.8757 44.941 38.0307 45.5932 33.8869C46.0325 35.9366 46.1621 38.049 45.9697 40.1343C55.3272 27.0811 46.7457 13.5468 43.1545 9.98285C43.142 9.95566 43.1294 9.94311 43.1294 9.91801C43.1169 9.93056 43.1169 9.93056 43.1169 9.94311C43.1169 9.93056 43.1169 9.93056 43.1022 9.91801C43.1022 10.0728 43.0897 10.2276 43.0771 10.3844C43.0412 10.6748 42.998 10.9642 42.9475 11.2524C42.8847 11.5369 42.8052 11.8234 42.7279 12.1099C42.6358 12.3818 42.5333 12.6663 42.4141 12.9382C42.2956 13.2067 42.1665 13.4704 42.0272 13.7288C41.7378 14.2369 41.4039 14.7185 41.0295 15.1677C40.835 15.3999 40.628 15.607 40.4188 15.8161C40.2966 15.9279 40.171 16.036 40.0423 16.1403L39.7453 16.3997C39.5139 16.5823 39.2715 16.7506 39.0196 16.9037C38.7718 17.0633 38.5163 17.2106 38.2541 17.345C37.9822 17.4747 37.7103 17.5918 37.4384 17.7089C36.8846 17.9196 36.3116 18.0758 35.7275 18.1754C35.4284 18.2276 35.1314 18.2527 34.8449 18.2799C34.6381 18.2946 34.431 18.3029 34.2237 18.305C33.9289 18.301 33.6343 18.2835 33.3411 18.2527C33.045 18.2295 32.7508 18.1862 32.4606 18.1231C32.1666 18.0697 31.8766 17.9963 31.5926 17.9035H31.5779C31.8645 17.8763 32.1489 17.8512 32.4355 17.7989C33.0192 17.6977 33.592 17.5415 34.1463 17.3325C34.4308 17.2279 34.7027 17.0982 34.962 16.9685C35.2339 16.8389 35.4807 16.6966 35.7401 16.5419C35.9869 16.3746 36.2316 16.2051 36.4658 16.0232C36.7001 15.8412 36.9197 15.6467 37.1267 15.4396C37.3464 15.2451 37.5409 15.0255 37.7354 14.8038C37.9299 14.5717 38.1119 14.3374 38.2792 14.1052C38.3064 14.0655 38.3336 14.0132 38.3587 13.9756C38.4883 13.7664 38.618 13.5594 38.7351 13.3523C39.0209 12.8364 39.2549 12.2934 39.4337 11.7314C39.5257 11.4595 39.5906 11.175 39.6554 10.8885C39.7077 10.5915 39.76 10.307 39.7851 10.0205C39.8102 9.7235 39.8374 9.42441 39.8374 9.13997C39.8374 8.93081 39.8227 8.72375 39.8102 8.51669C39.7843 8.22635 39.7494 7.93688 39.7056 7.64871C39.6552 7.35651 39.591 7.06686 39.5132 6.78073C39.4211 6.50883 39.3312 6.22229 39.2266 5.95039C39.1221 5.67849 38.9945 5.40659 38.8648 5.14724C38.7205 4.88789 38.5783 4.62855 38.4235 4.38175C38.2579 4.13944 38.0849 3.90229 37.9048 3.67063C37.7103 3.44893 37.5158 3.22722 37.3087 3.00761C37.1996 2.89634 37.0873 2.78823 36.972 2.68343C36.3863 2.22957 35.7798 1.80289 35.1691 1.41387C35.0853 1.36549 34.9987 1.32218 34.9097 1.2842C34.5252 1.04876 34.1109 0.863779 33.6778 0.738308Z" fill="#FE7F2D" stroke="black" stroke-width="0.4" mask="url(#path-1-inside-1_1602_7)"/>
</svg>
