<svg width="50" height="51" viewBox="0 0 50 51" fill="none" xmlns="http://www.w3.org/2000/svg">
<path d="M0.100001 24.9991L0.100001 24.9991C0.10016 20.7024 1.21213 16.4789 3.32779 12.7393C5.44345 8.99961 8.4908 5.87104 12.1735 3.65775C15.8563 1.44447 20.049 0.221804 24.3442 0.10864C28.6393 -0.00452467 32.8907 0.995665 36.6848 3.01195C40.479 5.02824 43.6869 7.99202 45.9965 11.6151C48.3062 15.2382 49.639 19.3972 49.8654 23.6879C50.0918 27.9786 49.2041 32.2548 47.2886 36.1009C45.3875 39.9178 42.5384 43.1821 39.0146 45.5815L16.4381 13.9743C16.4381 13.9743 16.438 13.9743 16.438 13.9743C16.2207 13.6697 15.9122 13.442 15.557 13.324C15.2019 13.206 14.8184 13.2038 14.462 13.3178C14.1055 13.4317 13.7944 13.656 13.5736 13.9581C13.3528 14.2603 13.2337 14.6247 13.2333 14.999V14.9991V39.9991V40.0991H13.3333H16.6667H16.7667V39.9991V20.5111L35.9502 47.3681C32.1809 49.2137 28.0057 50.077 23.8123 49.8767C19.5798 49.6746 15.469 48.3958 11.8688 46.1612C8.26857 43.9266 5.29818 40.8102 3.23875 37.107C1.17932 33.4039 0.0989842 29.2364 0.100001 24.9991ZM33.2333 33.3324V33.4324H33.3333H36.6667H36.7667V33.3324V13.3324V13.2324H36.6667H33.3333H33.2333V13.3324V33.3324ZM0.00476275 24.9991H0.00476262H0.00476275Z" fill="#FE7F2D" stroke="black" stroke-width="0.2"/>
</svg>
