<svg width="40" height="40" viewBox="0 0 40 40" fill="none" xmlns="http://www.w3.org/2000/svg">
<path d="M19.9966 40C19.3758 40 18.7956 39.8518 18.2539 39.5954L12.7479 36.6948C11.9239 36.2881 12.337 36.1399 12.5854 36.0658C13.7051 35.7353 13.9127 35.6632 15.0708 35.0782C15.1972 35.0041 15.362 35.0382 15.4885 35.1123L19.7099 37.3558C19.877 37.4279 20.0847 37.4279 20.2088 37.3558L36.7312 28.8684C36.8982 28.7963 36.9795 28.6481 36.9795 28.4638V11.5211C36.9795 11.3388 36.8982 11.1906 36.7312 11.1185L20.2088 2.66714C20.044 2.59302 19.8363 2.59302 19.7099 2.66714L3.18302 11.1165C3.01823 11.1886 2.9347 11.3749 2.9347 11.5191V28.4598C2.9347 28.606 3.01823 28.7923 3.18302 28.8644L7.69795 31.1821C10.1405 32.2798 11.6756 30.9918 11.6756 29.7098V12.9914C11.6756 12.7711 11.881 12.5487 12.1722 12.5487H14.2852C14.529 12.5487 14.7819 12.733 14.7819 12.9914V29.7118C14.7819 32.6144 13.003 34.307 9.89672 34.307C8.94407 34.307 8.19911 34.307 6.08612 33.3856L1.7405 31.1841C1.21103 30.911 0.771624 30.5193 0.466193 30.0483C0.160762 29.5772 8.69852e-06 29.0433 0 28.4999V11.5572C0 10.4554 0.661437 9.4258 1.7405 8.87493L18.2561 0.387547C18.7923 0.133116 19.3909 0 19.9989 0C20.6069 0 21.2055 0.133116 21.7416 0.387547L38.2595 8.87493C39.3408 9.42379 40 10.4554 40 11.5572V28.4999C40 29.5996 39.3386 30.6292 38.2595 31.1841L21.7416 39.6695C21.1976 39.8898 20.5768 40 19.9966 40ZM25.0895 28.3496C17.843 28.3496 16.3531 25.409 16.3531 22.9131C16.3531 22.6927 16.5608 22.4704 16.8497 22.4704H19.0033C19.2517 22.4704 19.4571 22.6166 19.4571 22.8389C19.7889 24.784 20.7393 25.7415 25.1323 25.7415C28.6088 25.7415 30.1033 25.0404 30.1033 23.3878C30.1033 22.4323 29.6856 21.7352 24.2632 21.2585C19.7506 20.8578 16.9355 19.9704 16.9355 16.7754C16.9355 13.8007 19.7505 12.0359 24.4732 12.0359C29.7714 12.0359 32.3811 13.6565 32.7106 17.18C32.7067 17.2989 32.6627 17.4141 32.5842 17.5105C32.5007 17.5827 32.3788 17.6568 32.2546 17.6568H30.1033C29.9969 17.6548 29.8944 17.6214 29.8118 17.5619C29.7292 17.5024 29.6713 17.4202 29.6473 17.3283C29.1484 15.3011 27.8661 14.644 24.4732 14.644C20.6603 14.644 20.2043 15.8199 20.2043 16.7013C20.2043 17.7649 20.7393 18.0955 25.8796 18.6844C30.9724 19.2713 33.3743 20.1166 33.3743 23.2796C33.3292 26.5147 30.3516 28.3496 25.0895 28.3496Z" fill="#FE7F2D"/>
</svg>
