<svg width="32" height="27" viewBox="0 0 24 24" fill="none" xmlns="http://www.w3.org/2000/svg">
<path d="M20 16.6406C20 16.526 19.9896 16.4427 19.9688 16.3906C19.9479 16.3385 19.8542 16.2526 19.6875 16.1328C19.5208 16.013 19.3099 15.8828 19.0547 15.7422C18.7995 15.6016 18.5521 15.4635 18.3125 15.3281C18.0729 15.1927 17.8359 15.0625 17.6016 14.9375C17.3672 14.8125 17.2188 14.7344 17.1562 14.7031C17.1042 14.6719 17.0052 14.6042 16.8594 14.5C16.7135 14.3958 16.5833 14.3177 16.4688 14.2656C16.3542 14.2135 16.2448 14.1875 16.1406 14.1875C15.9844 14.1875 15.7943 14.2943 15.5703 14.5078C15.3464 14.7214 15.1406 14.9557 14.9531 15.2109C14.7656 15.4661 14.5651 15.7005 14.3516 15.9141C14.138 16.1276 13.9635 16.2344 13.8281 16.2344C13.7552 16.2344 13.6693 16.2161 13.5703 16.1797C13.4714 16.1432 13.3906 16.1094 13.3281 16.0781C13.2656 16.0469 13.1771 15.9974 13.0625 15.9297C12.9479 15.862 12.875 15.8177 12.8438 15.7969C11.8125 15.224 10.9271 14.5651 10.1875 13.8203C9.44792 13.0755 8.78646 12.1875 8.20312 11.1562C8.18229 11.125 8.13802 11.0521 8.07031 10.9375C8.0026 10.8229 7.95312 10.7344 7.92188 10.6719C7.89062 10.6094 7.85677 10.5286 7.82031 10.4297C7.78385 10.3307 7.76562 10.2448 7.76562 10.1719C7.76562 10.0365 7.8724 9.86198 8.08594 9.64844C8.29948 9.4349 8.53385 9.23438 8.78906 9.04688C9.04427 8.85938 9.27865 8.65365 9.49219 8.42969C9.70573 8.20573 9.8125 8.01562 9.8125 7.85938C9.8125 7.75521 9.78646 7.64583 9.73438 7.53125C9.68229 7.41667 9.60417 7.28646 9.5 7.14062C9.39583 6.99479 9.32812 6.89583 9.29688 6.84375C9.26562 6.78125 9.1875 6.63281 9.0625 6.39844C8.9375 6.16406 8.80729 5.92708 8.67188 5.6875C8.53646 5.44792 8.39844 5.20052 8.25781 4.94531C8.11719 4.6901 7.98698 4.47917 7.86719 4.3125C7.7474 4.14583 7.66146 4.05208 7.60938 4.03125C7.55729 4.01042 7.47396 4 7.35938 4C6.85938 4 6.33333 4.11458 5.78125 4.34375C5.30208 4.5625 4.88542 5.05469 4.53125 5.82031C4.17708 6.58594 4 7.26562 4 7.85938C4 8.02604 4.01302 8.20312 4.03906 8.39062C4.0651 8.57812 4.09115 8.73698 4.11719 8.86719C4.14323 8.9974 4.1901 9.16927 4.25781 9.38281C4.32552 9.59635 4.3776 9.75 4.41406 9.84375C4.45052 9.9375 4.51562 10.1094 4.60938 10.3594C4.70312 10.6094 4.76042 10.7656 4.78125 10.8281C5.40625 12.5365 6.53385 14.2057 8.16406 15.8359C9.79427 17.4661 11.4635 18.5938 13.1719 19.2188C13.2344 19.2396 13.3906 19.2969 13.6406 19.3906C13.8906 19.4844 14.0625 19.5495 14.1562 19.5859C14.25 19.6224 14.4036 19.6745 14.6172 19.7422C14.8307 19.8099 15.0026 19.8568 15.1328 19.8828C15.263 19.9089 15.4219 19.9349 15.6094 19.9609C15.7969 19.987 15.974 20 16.1406 20C16.7344 20 17.4141 19.8229 18.1797 19.4688C18.9453 19.1146 19.4375 18.6979 19.6562 18.2188C19.8854 17.6667 20 17.1406 20 16.6406ZM24 4.5V19.5C24 20.7396 23.5599 21.7995 22.6797 22.6797C21.7995 23.5599 20.7396 24 19.5 24H4.5C3.26042 24 2.20052 23.5599 1.32031 22.6797C0.440104 21.7995 0 20.7396 0 19.5V4.5C0 3.26042 0.440104 2.20052 1.32031 1.32031C2.20052 0.440104 3.26042 0 4.5 0H19.5C20.7396 0 21.7995 0.440104 22.6797 1.32031C23.5599 2.20052 24 3.26042 24 4.5Z" fill="#EFEFD0"/>
</svg>
