<svg width="40" height="40" viewBox="0 0 40 40" fill="none" xmlns="http://www.w3.org/2000/svg">
<path d="M28.7378 0C27.1346 0.0118369 25.5406 0.237291 24.0006 0.670042L23.8936 0.703794C22.9247 0.540913 21.9445 0.449396 20.9613 0.430027C18.9348 0.396275 17.1955 0.871304 15.7937 1.66635C14.4113 1.20507 11.5461 0.396275 8.52615 0.560035C6.42743 0.670042 4.13158 1.28883 2.42581 3.03394C0.735488 4.7728 -0.162493 7.46796 0.0243179 11.1407C0.0771404 12.1495 0.373461 13.7959 0.869477 15.9372C1.35905 18.0736 2.0509 20.5738 2.91667 22.8589C3.78244 25.1378 4.7268 27.1879 6.20454 28.5805C6.94148 29.2768 7.96186 29.8706 9.1626 29.8193C10.0026 29.7856 10.7602 29.4281 11.4185 28.9005C11.7393 29.3106 12.0833 29.4856 12.3912 29.6493C12.788 29.8581 13.1629 30.0006 13.5597 30.0931C14.2709 30.2681 15.4858 30.4969 16.9082 30.2619C17.4261 30.1714 17.9309 30.0208 18.4117 29.8131L18.4722 31.4469C18.5457 33.1721 18.5946 34.7672 19.1229 36.1672C19.2105 36.396 19.4462 37.5673 20.3713 38.6086C21.304 39.65 23.1142 40.295 25.1884 39.865C26.6455 39.565 28.5033 39.0187 29.7389 37.3136C30.9602 35.6335 31.5104 33.2183 31.6186 29.2981C31.6443 29.0831 31.6791 28.908 31.7113 28.738L31.9999 28.7643H32.0347C33.591 28.8293 35.2827 28.6143 36.6986 27.9755C37.9457 27.4154 38.8926 26.8492 39.5832 25.8404C39.7519 25.5916 39.9452 25.2866 39.9942 24.7653C40.047 24.2515 39.7378 23.4365 39.2276 23.0602C38.2085 22.3051 37.5643 22.5914 36.8725 22.7352C36.1949 22.8768 35.5053 22.9572 34.8124 22.9752C36.7978 19.7337 38.2201 16.2835 39.033 13.2346C39.5162 11.4307 39.7854 9.77061 39.8048 8.31927C39.8318 6.86793 39.7056 5.58535 38.8115 4.47278C36.0067 1.00256 32.0669 0.0375023 29.0213 0.00625039H28.7391L28.7378 0ZM28.6567 1.06882C31.5361 1.04256 35.2182 1.82386 37.8619 5.10407C38.4597 5.84036 38.6349 6.91418 38.6143 8.24301C38.5937 9.57184 38.3399 11.1532 37.8761 12.892C36.9846 16.266 35.2852 20.1838 32.9044 23.7077C32.9863 23.7676 33.0765 23.816 33.1723 23.8515C33.6684 24.0527 34.8021 24.2215 37.0696 23.7727C37.6403 23.654 38.0578 23.5777 38.4932 23.8965C38.5989 23.983 38.6824 24.0922 38.7369 24.2154C38.7915 24.3387 38.8157 24.4726 38.8076 24.6065C38.7841 24.8095 38.7054 25.0028 38.5795 25.1666C38.1428 25.8028 37.2796 26.4104 36.1716 26.9117C35.1925 27.3529 33.7817 27.5817 32.5423 27.5955C31.9123 27.6017 31.3351 27.5555 30.843 27.4054L30.8172 27.4004C30.6278 29.1643 30.1937 32.6545 29.9102 34.2421C29.6835 35.5235 29.2867 36.5473 28.5291 37.3086C27.7703 38.0774 26.7035 38.5324 25.2606 38.8324C23.4762 39.2037 22.1801 38.8062 21.3427 38.1224C20.5053 37.4386 20.1213 36.5273 19.8933 35.9735C19.7335 35.5897 19.6524 35.0947 19.5725 34.4296C19.4848 33.6356 19.4263 32.8388 19.3973 32.0407C19.3444 30.6406 19.3238 29.2406 19.3444 27.8342C18.6001 28.4965 17.6753 28.9373 16.6801 29.1043C15.4936 29.2993 14.4397 29.1043 13.8097 28.9543C13.4989 28.8774 13.199 28.7636 12.9169 28.6155C12.6218 28.4655 12.3461 28.2968 12.1593 27.9567C12.0517 27.762 12.0184 27.5367 12.0653 27.3204C12.121 27.1008 12.2512 26.9058 12.435 26.7667C12.7764 26.4979 13.2274 26.3504 13.9037 26.2129C15.1393 25.9641 15.5747 25.7966 15.8363 25.5928C16.0579 25.4241 16.3142 25.0728 16.7549 24.5578C16.7549 24.539 16.7549 24.5128 16.7484 24.4928C15.95 24.4692 15.1685 24.2641 14.4667 23.894C14.2129 24.154 12.8898 25.5091 11.2871 27.3842C10.6159 28.1642 9.87119 28.6143 9.08015 28.648C8.29554 28.6793 7.58179 28.2968 6.97884 27.7292C5.77166 26.5891 4.8041 24.629 3.96539 22.4151C3.12667 20.2013 2.449 17.7348 1.95942 15.6385C1.47629 13.5346 1.1877 11.842 1.14647 11.0282C0.966103 7.55797 1.80482 5.22157 3.24005 3.74273C4.67527 2.26389 6.64258 1.71136 8.56223 1.60135C12.0047 1.41259 15.2784 2.57766 15.9368 2.82518C17.2109 1.98512 18.8549 1.46509 20.9085 1.49634C21.8817 1.51023 22.8501 1.63271 23.7944 1.86137L23.8292 1.84136C24.2447 1.70174 24.6679 1.58488 25.0969 1.49134C26.263 1.22583 27.4552 1.08374 28.6528 1.06757L28.6567 1.06882ZM28.9182 2.18139H28.6644C27.6852 2.19264 26.6971 2.30514 25.7385 2.50641C27.8785 3.42521 29.4954 4.83655 30.6356 6.25664C31.4279 7.23295 32.0785 8.30676 32.5745 9.45309C32.7704 9.89686 32.8979 10.2669 32.9649 10.5532C33.0048 10.6969 33.0255 10.8194 33.0383 10.9432C33.0383 11.0082 33.0448 11.0744 33.0113 11.1844C33.0113 11.1907 33.0048 11.2044 33.0048 11.2107C33.0602 12.6695 32.684 13.6571 32.6351 15.0509C32.6029 16.061 32.8709 17.2461 32.9379 18.5411C32.9984 19.7575 32.8451 21.0926 32.0321 22.4076C32.0991 22.4864 32.1597 22.5639 32.2267 22.6489C34.3808 19.3537 35.9371 15.7147 36.763 12.6083C37.2062 10.9344 37.4394 9.41808 37.46 8.22176C37.4806 7.02294 37.2525 6.15038 36.9562 5.78661C34.6475 2.92768 31.5284 2.19764 28.9169 2.18014L28.9182 2.18139ZM20.6843 2.61016C18.659 2.61641 17.2019 3.2102 16.0965 4.1015C14.9537 5.02656 14.1898 6.28289 13.6937 7.57797C13.0959 9.10806 12.8885 10.5919 12.8073 11.602L12.8344 11.5882C13.5497 11.1996 14.3178 10.9105 15.1161 10.7294C15.9754 10.5332 16.9082 10.4744 17.7456 10.7944C18.5921 11.1057 19.2826 11.8545 19.5377 12.9808C20.7475 18.4111 19.1628 20.43 18.5792 21.9526C18.3576 22.5064 18.163 23.0664 18.0084 23.639C18.0819 23.6252 18.1566 23.6052 18.23 23.599C18.6462 23.5677 18.967 23.6977 19.1563 23.7752C19.7477 24.0152 20.1497 24.5103 20.3713 25.0766C20.4257 25.2311 20.4658 25.3901 20.4911 25.5516C20.5133 25.6191 20.525 25.6895 20.5259 25.7603C20.4582 27.8367 20.4647 29.9148 20.5452 31.9907C20.5864 32.8895 20.647 33.6771 20.7204 34.3021C20.7938 34.9209 20.8943 35.3959 20.9626 35.5585C21.1829 36.0922 21.505 36.7885 22.0899 37.2636C22.6671 37.7398 23.4981 38.0524 25.0222 37.7398C26.3428 37.4598 27.1557 37.081 27.6981 36.5348C28.2431 35.981 28.5639 35.2197 28.7713 34.0546C29.087 32.3033 29.7105 27.2242 29.7853 26.2741C29.753 25.5503 29.8587 24.9978 30.1009 24.574C30.3418 24.144 30.718 23.8777 31.0478 23.734C31.2076 23.6627 31.3622 23.6177 31.4897 23.5777C31.3548 23.395 31.216 23.215 31.0736 23.0377C30.6034 22.4841 30.2168 21.8683 29.9257 21.2088C29.7918 20.9323 29.6439 20.6624 29.4825 20.4C29.2557 20.0037 28.9671 19.5012 28.6644 18.9349C28.0602 17.8149 27.4031 16.4485 27.0604 15.1197C26.719 13.7909 26.6726 12.4183 27.5448 11.4545C28.3165 10.5944 29.6783 10.2381 31.7101 10.4394C31.6495 10.2631 31.6173 10.1131 31.5155 9.88561C31.0534 8.83248 30.4509 7.84273 29.7234 6.94168C27.9983 4.8003 25.2 2.67642 20.8866 2.60516L20.6843 2.61016ZM9.27855 2.69517C9.06151 2.69494 8.84452 2.70162 8.62793 2.71517C6.88995 2.81392 5.25245 3.3002 4.07747 4.50528C2.90379 5.7166 2.13335 7.68923 2.29955 10.9644C2.33433 11.5895 2.60875 13.3208 3.08415 15.3847C3.56213 17.4498 4.23852 19.8787 5.05147 22.0264C5.86184 24.1677 6.84357 26.0366 7.78277 26.9217C8.25173 27.3579 8.66014 27.5405 9.0299 27.528C9.39966 27.508 9.84929 27.2992 10.3994 26.6617C11.3978 25.4929 12.4341 24.3551 13.5069 23.2502C12.7461 22.6075 12.1641 21.7894 11.8147 20.8713C11.4653 19.9531 11.3596 18.9643 11.5074 17.9961C11.6813 16.766 11.7084 15.6122 11.6813 14.7009C11.662 13.8159 11.6002 13.2308 11.6002 12.8595V12.8195L11.5937 12.8083C11.5937 10.8869 11.9442 8.98681 12.6141 7.18294C13.0972 5.93787 13.8097 4.68279 14.8816 3.65898C13.829 3.32021 11.9557 2.81392 9.93046 2.71517C9.71387 2.70165 9.49688 2.69498 9.27984 2.69517H9.27855ZM30.575 11.497C29.4091 11.517 28.7571 11.8107 28.4093 12.187C27.9249 12.7283 27.8785 13.6783 28.1813 14.8509C28.4814 16.0222 29.1076 17.3311 29.6912 18.4199C29.9798 18.9662 30.2619 19.455 30.4887 19.8512C30.7245 20.255 30.892 20.535 30.9924 20.7825C31.0865 21.0038 31.1947 21.1988 31.3016 21.3813C31.7513 20.4563 31.8324 19.5512 31.7848 18.6012C31.7242 17.4298 31.4434 16.231 31.4897 15.0209C31.5374 13.6008 31.826 12.6758 31.8466 11.582C31.4259 11.528 31.002 11.4996 30.5776 11.497H30.575ZM16.4315 11.6945C16.0759 11.6945 15.7203 11.7395 15.3712 11.8182C14.6792 11.9797 14.0131 12.2316 13.391 12.567C13.1816 12.677 12.9821 12.8037 12.7945 12.9458L12.7532 12.9771C12.7674 13.2258 12.8138 13.8109 12.8344 14.6834C12.855 15.6335 12.8344 16.8435 12.6476 18.1536C12.2315 21.0051 14.365 23.3627 16.8682 23.3689C17.0164 22.7827 17.256 22.1889 17.4982 21.5651C18.1952 19.7412 19.5648 18.4136 18.4104 13.2183C18.2236 12.372 17.8474 12.027 17.3295 11.832C17.0413 11.7336 16.7369 11.6874 16.4315 11.6957V11.6945ZM30.0326 12.032H30.1202C30.2272 12.0382 30.3354 12.0457 30.4281 12.0707C30.5119 12.0867 30.5919 12.1176 30.6639 12.162C30.6974 12.1815 30.7261 12.2078 30.7481 12.2391C30.7702 12.2704 30.7849 12.3059 30.7915 12.3433V12.357C30.7911 12.437 30.7703 12.5156 30.7309 12.5858C30.6802 12.6756 30.6174 12.7584 30.5441 12.832C30.3708 13.02 30.136 13.1441 29.8793 13.1833C29.6309 13.2142 29.3796 13.154 29.1746 13.0146C29.0934 12.9574 29.019 12.8916 28.953 12.8183C28.895 12.7591 28.8572 12.684 28.8448 12.6033C28.8372 12.5262 28.8613 12.4494 28.9118 12.3895C28.9714 12.3304 29.0395 12.2798 29.114 12.2395C29.2802 12.1483 29.5018 12.0832 29.7582 12.0495C29.851 12.0382 29.945 12.0307 30.0326 12.0245V12.032ZM16.5977 12.312C16.6853 12.312 16.7871 12.3183 16.8811 12.3308C17.1491 12.3708 17.3771 12.4358 17.5575 12.5395C17.6459 12.5813 17.7238 12.6415 17.7855 12.7158C17.8525 12.7941 17.8861 12.8943 17.8796 12.9958C17.8613 13.0921 17.8168 13.1818 17.7508 13.2558C17.6801 13.3393 17.5967 13.4118 17.5034 13.4708C17.2801 13.6265 17.0043 13.6939 16.7317 13.6596C16.4555 13.6165 16.2025 13.4839 16.0141 13.2833C15.9349 13.2008 15.8669 13.1088 15.8118 13.0096C15.7517 12.9211 15.7257 12.8148 15.7383 12.7095C15.7654 12.5345 15.92 12.4358 16.0682 12.3845C16.2369 12.3308 16.4173 12.3133 16.5977 12.3195V12.312ZM32.1597 24.5515H32.1532C31.9059 24.6428 31.6985 24.6765 31.5232 24.7553C31.3459 24.8202 31.2001 24.9473 31.1148 25.1116C31.0002 25.3016 30.9139 25.6403 30.9396 26.2179C31.0171 26.272 31.1039 26.3122 31.196 26.3366C31.4846 26.4216 31.9806 26.4804 32.5307 26.4729C33.6245 26.4591 34.9734 26.2129 35.6911 25.8866C36.2775 25.6229 36.822 25.2789 37.3079 24.8653C34.9129 25.3403 33.5653 25.2166 32.7317 24.8853C32.5269 24.7993 32.335 24.6871 32.161 24.5515H32.1597ZM18.364 24.7078H18.3292C18.2365 24.714 18.1076 24.7478 17.8461 25.0216C17.2483 25.6716 17.0409 26.0816 16.5513 26.4604C16.0553 26.8442 15.4176 27.0467 14.1356 27.3004C13.8622 27.3479 13.596 27.4286 13.3433 27.5405C13.3897 27.5805 13.3897 27.5942 13.4631 27.6255C13.6525 27.7305 13.8921 27.8155 14.088 27.8667C14.6381 27.9967 15.5361 28.153 16.483 27.9967C17.4222 27.8405 18.4014 27.4029 19.2414 26.2654C19.3895 26.0704 19.4011 25.7766 19.2813 25.4641C19.1615 25.1591 18.8987 24.8853 18.7183 24.814C18.6054 24.7631 18.4857 24.7277 18.3627 24.709L18.364 24.7078Z" fill="#FE7F2D"/>
</svg>
