<svg width="40" height="40" viewBox="0 0 40 40" fill="none" xmlns="http://www.w3.org/2000/svg">
<path d="M20 16.0695C21.9163 16.0695 23.4791 17.8164 23.4791 20C23.4791 22.0796 21.9163 23.8473 20 23.8473C18.0837 23.8473 16.5209 22.0796 16.5209 20C16.5209 17.8164 18.0837 16.0695 20 16.0695ZM11.386 36.6371C12.5581 37.4274 15.1256 36.2212 18.0837 33.1018C17.1163 31.8748 16.1674 30.5438 15.2744 29.1504C13.7752 28.99 12.2847 28.7401 10.8093 28.4018C9.86047 32.8522 10.214 35.9093 11.386 36.6371ZM12.707 24.7L12.1674 23.6394C11.9628 24.2425 11.7581 24.8456 11.6279 25.4279C12.1302 25.5526 12.6884 25.6566 13.2651 25.7606L12.707 24.7ZM24.8744 23.1195L26.3814 20L24.8744 16.8805C24.3163 15.7783 23.7209 14.8009 23.1814 13.8235C22.1767 13.7611 21.1163 13.7611 20 13.7611C18.8837 13.7611 17.8233 13.7611 16.8186 13.8235C16.2791 14.8009 15.6837 15.7783 15.1256 16.8805L13.6186 20L15.1256 23.1195C15.6837 24.2217 16.2791 25.1991 16.8186 26.1765C17.8233 26.2389 18.8837 26.2389 20 26.2389C21.1163 26.2389 22.1767 26.2389 23.1814 26.1765C23.7209 25.1991 24.3163 24.2217 24.8744 23.1195ZM20 9.14426C19.6465 9.60178 19.2744 10.0801 18.9023 10.6416H21.0977C20.7256 10.0801 20.3535 9.60178 20 9.14426ZM20 30.8557C20.3535 30.3982 20.7256 29.9199 21.0977 29.3584H18.9023C19.2744 29.9199 19.6465 30.3982 20 30.8557ZM28.5954 3.36285C27.4419 2.57259 24.8744 3.77878 21.9163 6.89825C22.8837 8.12524 23.8326 9.45621 24.7256 10.8496C26.2512 11.0159 27.7581 11.2655 29.1907 11.5982C30.1395 7.1478 29.786 4.09073 28.5954 3.36285ZM27.293 15.3L27.8326 16.3606C28.0372 15.7575 28.2419 15.1544 28.3721 14.5721C27.8698 14.4474 27.3116 14.3434 26.7349 14.2394L27.293 15.3ZM29.9907 0.638519C32.7256 2.38542 33.0233 6.98143 31.8698 12.3469C36.5953 13.9066 40 16.4854 40 20C40 23.5146 36.5953 26.0934 31.8698 27.6531C33.0233 33.0186 32.7256 37.6146 29.9907 39.3615C27.2744 41.1084 23.5721 39.1119 20 35.3062C16.4279 39.1119 12.7256 41.1084 9.9907 39.3615C7.27442 37.6146 6.97674 33.0186 8.13023 27.6531C3.40465 26.0934 0 23.5146 0 20C0 16.4854 3.40465 13.9066 8.13023 12.3469C6.97674 6.98143 7.27442 2.38542 9.9907 0.638519C12.7256 -1.10838 16.4279 0.888076 20 4.69382C23.5721 0.888076 27.2744 -1.10838 29.9907 0.638519ZM29.4512 20C30.0837 21.5597 30.6419 23.1195 31.107 24.7C35.014 23.3898 37.2093 21.5181 37.2093 20C37.2093 18.4819 35.014 16.6102 31.107 15.3C30.6419 16.8805 30.0837 18.4403 29.4512 20ZM10.5488 20C9.91628 18.4403 9.35814 16.8805 8.89302 15.3C4.98605 16.6102 2.7907 18.4819 2.7907 20C2.7907 21.5181 4.98605 23.3898 8.89302 24.7C9.35814 23.1195 9.91628 21.5597 10.5488 20ZM27.293 24.7L26.7349 25.7606C27.3116 25.6566 27.8698 25.5526 28.3721 25.4279C28.2419 24.8456 28.0372 24.2425 27.8326 23.6394L27.293 24.7ZM21.9163 33.1018C24.8744 36.2212 27.4419 37.4274 28.5954 36.6371C29.786 35.9093 30.1395 32.8522 29.1907 28.4018C27.7581 28.7345 26.2512 28.9841 24.7256 29.1504C23.8326 30.5438 22.8837 31.8748 21.9163 33.1018ZM12.707 15.3L13.2651 14.2394C12.6884 14.3434 12.1302 14.4474 11.6279 14.5721C11.7581 15.1544 11.9628 15.7575 12.1674 16.3606L12.707 15.3ZM18.0837 6.89825C15.1256 3.77878 12.5581 2.57259 11.386 3.36285C10.214 4.09073 9.86047 7.1478 10.8093 11.5982C12.2847 11.2599 13.7752 11.0099 15.2744 10.8496C16.1674 9.45621 17.1163 8.12524 18.0837 6.89825Z" fill="#FE7F2D"/>
</svg>
