<svg width="40" height="40" viewBox="0 0 40 40" fill="none" xmlns="http://www.w3.org/2000/svg">
<path d="M20 0C31.0487 0 40 8.95125 40 20C40 31.0487 31.0487 40 20 40C8.95125 40 0 31.0487 0 20C0 8.95125 8.95125 0 20 0ZM16.0212 26.66C16.315 27.7412 16.2825 28.7437 15.9825 29.6488L15.8775 29.9487C15.8387 30.0525 15.7875 30.15 15.7475 30.2425C15.5068 30.7361 15.1957 31.1922 14.8238 31.5963C13.6575 32.86 12.0375 33.3413 11.34 32.9375C10.585 32.5013 10.9612 30.7113 12.31 29.2838C13.7612 27.7537 15.845 26.77 15.845 26.77V26.765L16.0212 26.66ZM32.545 8.56125C31.64 5.00625 25.7487 3.84125 20.175 5.82C16.855 6.99875 13.2688 8.84875 10.6838 11.2638C7.61 14.1337 7.1225 16.6338 7.325 17.675C8.04 21.36 13.0862 23.7762 15.1637 25.56V25.5737C14.55 25.8725 10.0725 28.1188 9.02375 30.45C7.8975 32.8963 9.2 34.6488 10.045 34.87C12.67 35.5988 15.3712 34.27 16.8237 32.1213C18.2237 30.02 18.0987 27.325 17.4937 25.9963C18.32 25.775 19.2975 25.67 20.5475 25.82C24.0513 26.2238 24.7475 28.425 24.5975 29.3237C24.4475 30.2225 23.7238 30.7488 23.4713 30.8988C23.225 31.0487 23.1463 31.0938 23.1713 31.1987C23.1975 31.3487 23.3213 31.3488 23.5225 31.3225C23.7963 31.2775 25.3463 30.5738 25.4238 28.8738C25.495 26.7188 23.4438 24.3238 19.7987 24.3688C18.295 24.4025 17.3438 24.525 16.6737 24.7988C16.6251 24.7307 16.5655 24.6712 16.4975 24.6225C14.2463 22.2013 10.0725 20.5025 10.2475 17.2725C10.3012 16.1012 10.7238 13.0025 18.2488 9.2525C24.42 6.1725 29.3488 7.02625 30.195 8.90125C31.42 11.5763 27.5712 16.5513 21.1462 17.2725C18.6975 17.5462 17.4212 16.6025 17.0963 16.2513C16.745 15.8725 16.7 15.8475 16.5675 15.9263C16.3725 16.0225 16.4963 16.35 16.5675 16.5513C16.7687 17.0513 17.5438 17.925 18.8988 18.3725C20.07 18.7512 22.9487 18.9725 26.3988 17.6238C30.2725 16.1275 33.2938 11.9538 32.42 8.45L32.545 8.56125Z" fill="#FE7F2D"/>
</svg>
