<svg width="50" height="50" viewBox="0 0 50 50" fill="none" xmlns="http://www.w3.org/2000/svg">
<path fill-rule="evenodd" clip-rule="evenodd" d="M0 0H50V50H0V0ZM33.3333 20C31.5652 20 29.8695 20.7024 28.6193 21.9526C27.369 23.2029 26.6667 24.8986 26.6667 26.6667C26.6667 28.4348 27.369 30.1305 28.6193 31.3807C29.8695 32.631 31.5652 33.3333 33.3333 33.3333H36.6667C37.5507 33.3333 38.3986 33.6845 39.0237 34.3096C39.6488 34.9348 40 35.7826 40 36.6667C40 37.5507 39.6488 38.3986 39.0237 39.0237C38.3986 39.6488 37.5507 40 36.6667 40H33.3333C32.4493 40 31.6014 39.6488 30.9763 39.0237C30.3512 38.3986 30 37.5507 30 36.6667H26.6667C26.6667 38.4348 27.369 40.1305 28.6193 41.3807C29.8695 42.631 31.5652 43.3333 33.3333 43.3333H36.6667C38.4348 43.3333 40.1305 42.631 41.3807 41.3807C42.631 40.1305 43.3333 38.4348 43.3333 36.6667C43.3333 34.8986 42.631 33.2029 41.3807 31.9526C40.1305 30.7024 38.4348 30 36.6667 30H33.3333C32.4493 30 31.6014 29.6488 30.9763 29.0237C30.3512 28.3986 30 27.5507 30 26.6667C30 25.7826 30.3512 24.9348 30.9763 24.3096C31.6014 23.6845 32.4493 23.3333 33.3333 23.3333H37.2233C38.7567 23.3333 40 24.5767 40 26.11V26.6667H43.3333V26.11C43.3333 22.7367 40.6 20 37.2233 20H33.3333ZM10 20H26.6667V23.3333H20V43.3333H16.6667V23.3333H10V20Z" fill="#FE7F2D"/>
</svg>
