<svg width="28" height="32" viewBox="0 0 28 32" fill="none" xmlns="http://www.w3.org/2000/svg">
<path d="M17.1329 25.3486H11.6911L8.96973 29.6456V31.7952H11.6911H17.1329H19.8552V29.6456L17.1329 25.3486Z" fill="#EFEFD0"/>
<path d="M26.114 0.16864H2.71499C1.72047 0.16864 0.913086 1.12814 0.913086 2.31374V21.9988C0.913086 23.1855 1.72047 24.1461 2.71499 24.1461H26.114C27.1066 24.1461 27.9131 23.1855 27.9131 21.9988V2.31374C27.9131 1.12814 27.1066 0.16864 26.114 0.16864ZM14.5342 23.361C13.6746 23.361 12.9764 22.5342 12.9764 21.5173C12.9764 20.4993 13.6736 19.6748 14.5342 19.6748C15.3929 19.6748 16.091 20.4993 16.091 21.5173C16.091 22.5353 15.3929 23.361 14.5342 23.361ZM14.5503 22.6557C14.0146 22.6557 13.5834 22.1439 13.5834 21.5106C13.5834 20.8773 14.0137 20.3643 14.5503 20.3643C15.0842 20.3643 15.5173 20.8773 15.5173 21.5106C15.5173 22.1439 15.0851 22.6557 14.5503 22.6557ZM25.9849 19.0494H2.84322V2.45098H25.9849V19.0494Z" fill="#EFEFD0"/>
</svg>
